<?xml version="1.0" encoding="iso-8859-1"?>
<!-- Generator: Adobe Illustrator 25.4.1, SVG Export Plug-In . SVG Version: 6.00 Build 0)  -->
<svg version="1.1" id="Layer_1" xmlns="http://www.w3.org/2000/svg" xmlns:xlink="http://www.w3.org/1999/xlink" x="0px" y="0px"
	 viewBox="0 0 666.629 238.686" style="enable-background:new 0 0 666.629 238.686;" xml:space="preserve">
<g>
	<polyline style="fill:#423F3F;" points="666.629,-0.691 -0.912,-0.691 -0.912,238.686 666.629,238.686 666.629,-0.691 	"/>
</g>
<path style="fill:none;" d="M113.809,53.381c1.228-1.58,2.289-3.086,2.674-4.96c0.101-0.491,0.064-1.025,0.005-1.529
	c-0.051-0.443-0.317-0.789-0.912-1.014c-0.582,1.381-1.152,2.735-1.722,4.089c-0.015-0.002-0.029-0.003-0.044-0.005
	c-0.015,0.002-0.029,0.003-0.044,0.005c-0.571-1.354-1.141-2.709-1.722-4.089c-0.596,0.225-0.861,0.57-0.912,1.014
	c-0.059,0.504-0.096,1.038,0.005,1.529C111.52,50.294,112.581,51.801,113.809,53.381z"/>
<path style="fill:none;" d="M427.819,149.621c0,0.979,0.608,1.64,1.798,1.64c1.057,0,1.956-0.37,2.723-1.137v-2.062
	c-0.715-0.132-1.508-0.211-2.407-0.211C428.56,147.85,427.819,148.537,427.819,149.621z"/>
<path style="fill:none;" d="M436.14,67.799c0-3.562-2.035-5.851-6.041-5.851h-4.833v11.765h6.868
	C434.868,71.932,436.14,70.533,436.14,67.799z"/>
<path style="fill:none;" d="M444.949,143.461c-1.824,0-2.723,1.269-2.723,3.781c0,2.459,0.899,3.701,2.723,3.701
	c1.772,0,2.749-1.296,2.749-3.701C447.699,144.809,446.721,143.461,444.949,143.461z"/>
<polygon style="fill:none;" points="255.353,62.775 251.346,77.338 259.232,77.338 "/>
<path style="fill:none;" d="M224.305,116.836c-0.898,0-1.612,0.343-2.115,1.005c-0.503,0.661-0.739,1.638-0.739,2.882
	c0,1.242,0.237,2.221,0.739,2.908c0.503,0.661,1.217,1.005,2.115,1.005c0.899,0,1.587-0.344,2.09-1.005
	c0.501-0.687,0.766-1.666,0.766-2.908c0-1.243-0.264-2.221-0.766-2.882C225.892,117.179,225.204,116.836,224.305,116.836z"/>
<path style="fill:none;" d="M398.425,149.621c0,0.979,0.609,1.64,1.798,1.64c1.057,0,1.956-0.37,2.723-1.137v-2.062
	c-0.715-0.132-1.508-0.211-2.407-0.211C399.166,147.85,398.425,148.537,398.425,149.621z"/>
<path style="fill:none;" d="M222.058,149.621c0,0.979,0.609,1.64,1.798,1.64c1.057,0,1.956-0.37,2.723-1.137v-2.062
	c-0.714-0.132-1.508-0.211-2.407-0.211C222.799,147.85,222.058,148.537,222.058,149.621z"/>
<path style="fill:none;" d="M216.626,61.948h-3.625v25.436h3.625c6.042,0,9.857-4.833,9.857-12.781
	C226.483,66.781,222.668,61.948,216.626,61.948z"/>
<path style="fill:none;" d="M400.672,116.836c-0.898,0-1.612,0.343-2.115,1.005c-0.503,0.661-0.739,1.638-0.739,2.882
	c0,1.242,0.237,2.221,0.739,2.908c0.503,0.661,1.217,1.005,2.115,1.005c0.899,0,1.587-0.344,2.09-1.005
	c0.501-0.687,0.766-1.666,0.766-2.908c0-1.243-0.264-2.221-0.766-2.882C402.259,117.179,401.571,116.836,400.672,116.836z"/>
<path style="fill:none;" d="M341.883,124.635c0.899,0,1.587-0.344,2.09-1.005c0.501-0.687,0.766-1.666,0.766-2.908
	c0-1.243-0.264-2.221-0.766-2.882c-0.503-0.662-1.191-1.005-2.09-1.005c-0.898,0-1.612,0.343-2.115,1.005
	c-0.503,0.661-0.739,1.638-0.739,2.882c0,1.242,0.237,2.221,0.739,2.908C340.271,124.291,340.986,124.635,341.883,124.635z"/>
<path style="fill:none;" d="M365.428,67.035c0-3.37-1.781-5.087-5.405-5.087h-4.706v9.921h7.693
	C364.601,70.406,365.428,68.816,365.428,67.035z"/>
<path style="fill:none;" d="M367.081,82.551c0-2.989-2.162-4.451-6.486-4.451h-5.278v9.283h5.342
	C364.919,87.384,367.081,85.795,367.081,82.551z"/>
<path style="fill:none;" d="M86.008,150.332c0.74,0.007,1.494-0.714,1.464-1.4c-0.029-0.69-0.769-1.38-1.511-1.411
	c-0.763-0.032-1.455,0.724-1.429,1.559C84.552,149.724,85.261,150.325,86.008,150.332z"/>
<path style="fill:none;" d="M141.611,150.332c0.747-0.007,1.456-0.608,1.476-1.253c0.027-0.835-0.666-1.591-1.429-1.559
	c-0.742,0.031-1.482,0.722-1.512,1.411C140.117,149.618,140.87,150.339,141.611,150.332z"/>
<polygon style="fill:none;" points="396.777,62.775 392.77,77.338 400.656,77.338 "/>
<path style="fill:none;" d="M489.173,143.461c-1.428,0-2.247,0.845-2.485,2.564h4.706
	C491.499,144.439,490.653,143.461,489.173,143.461z"/>
<path style="fill:none;" d="M459.778,143.461c-1.428,0-2.247,0.845-2.485,2.564h4.706
	C462.105,144.439,461.259,143.461,459.778,143.461z"/>
<path style="fill:none;" d="M295.544,122.995c0,0.979,0.609,1.64,1.798,1.64c1.057,0,1.956-0.37,2.723-1.137v-2.062
	c-0.715-0.132-1.508-0.211-2.407-0.211C296.284,121.225,295.544,121.912,295.544,122.995z"/>
<path style="fill:none;" d="M342.201,143.461c-1.428,0-2.247,0.845-2.485,2.564h4.706
	C344.528,144.439,343.681,143.461,342.201,143.461z"/>
<path style="fill:none;" d="M253.937,143.461c-1.824,0-2.723,1.296-2.723,3.887c0,2.617,1.005,3.913,2.723,3.913
	c1.72,0,2.723-1.375,2.723-3.913C256.661,144.835,255.657,143.461,253.937,143.461z"/>
<path style="fill:none;" d="M253.462,116.836c-1.72,0-2.723,1.374-2.723,3.913c0,2.511,1.004,3.887,2.723,3.887
	c1.824,0,2.723-1.296,2.723-3.887C256.186,118.131,255.181,116.836,253.462,116.836z"/>
<path style="fill:#00FF7F;" d="M72.415,107.887c-0.613,0.266-1.172,0.811-1.582,1.359c-0.607,0.811-0.363,1.855,0.374,2.405
	c0.717,0.534,1.36,0.161,1.977-0.157c0.45-0.232,0.838-0.566,0.841-1.18c0.003-0.594-0.625-0.467-0.936-0.864
	c1.057-0.675,2.068-1.32,3.188-2.034C74.9,107.253,73.605,107.372,72.415,107.887z"/>
<path style="fill:#00FF7F;" d="M88.338,45.638c0.893,0.437,1.681-0.083,1.644-1.085c-0.037-0.985-0.921-1.719-1.963-1.598
	c-0.953,0.11-1.711,0.579-2.289,1.341c-1.263,1.665-1.464,3.555-1.091,5.528c0.794,4.205,3.771,6.56,7.405,8.594
	c-0.917-2.24-0.8-4.282,0.281-6.262c-0.069,0.407-0.138,0.813-0.208,1.22c0.27-0.412,0.406-0.854,0.54-1.296
	c0.103-0.338,0.13-0.729,0.321-1.007c1.279-1.861,2.696-3.601,4.627-4.841c1.322-0.849,2.65-1.689,3.91-2.492
	c-6.169-0.768-11.379,2.835-12.08,9.951c-0.331-0.39-0.672-0.865-1.086-1.265c-1.058-1.022-1.752-2.238-2.068-3.667
	c-0.202-0.914-0.163-1.814,0.335-2.639C87.101,45.317,87.484,45.221,88.338,45.638z"/>
<path style="fill:#00FF7F;" d="M74.581,142.995c1.615-0.483,2.412-1.654,2.78-3.225c0.422-1.802-0.018-3.507-0.436-5.277
	c-0.814,0.912-1.552,1.762-2.317,2.587c-0.525,0.567-0.892,1.205-1.02,1.967c-0.164,0.972-0.314,1.946-0.462,2.921
	c-0.075,0.497-0.189,1.009,0.362,1.39C73.836,143.241,74.206,143.108,74.581,142.995z"/>
<path style="fill:#00FF7F;" d="M146.037,141.215c0.311-0.577,0.579-1.038,0.814-1.515c0.605-1.233,1.21-2.466,1.784-3.713
	c0.229-0.497,0.423-1.021,0.551-1.552c0.251-1.039,0.141-2.053-0.504-2.935c-0.698-0.955-1.507-1.813-2.654-2.57
	c0.002,1.55-0.342,2.9-1.068,4.086c-1.459,2.386-1.108,4.652,0.237,6.91C145.437,140.327,145.708,140.711,146.037,141.215z"/>
<path style="fill:#00FF7F;" d="M153.593,110.314c0.002,0.614,0.391,0.948,0.841,1.18c0.617,0.318,1.26,0.691,1.977,0.157
	c0.737-0.55,0.981-1.594,0.374-2.405c-0.411-0.548-0.969-1.093-1.582-1.359c-1.19-0.515-2.485-0.634-3.863-0.471
	c1.12,0.715,2.131,1.359,3.188,2.034C154.218,109.847,153.59,109.72,153.593,110.314z"/>
<path style="fill:#00FF7F;" d="M139.269,52.424c-0.414,0.4-0.755,0.875-1.086,1.265c-0.701-7.116-5.911-10.719-12.08-9.951
	c1.26,0.802,2.587,1.643,3.91,2.492c1.932,1.24,3.348,2.98,4.627,4.841c0.191,0.278,0.218,0.669,0.321,1.007
	c0.135,0.442,0.27,0.884,0.54,1.296c-0.069-0.407-0.138-0.813-0.207-1.22c1.081,1.98,1.197,4.023,0.28,6.262
	c3.634-2.034,6.611-4.388,7.405-8.594c0.373-1.973,0.172-3.863-1.091-5.528c-0.578-0.762-1.336-1.231-2.289-1.341
	c-1.042-0.121-1.926,0.613-1.963,1.598c-0.037,1.002,0.75,1.521,1.644,1.085c0.853-0.417,1.237-0.321,1.721,0.481
	c0.499,0.825,0.537,1.725,0.336,2.639C141.021,50.187,140.327,51.403,139.269,52.424z"/>
<path style="fill:#00FF7F;" d="M153.037,142.995c0.376,0.112,0.745,0.246,1.094,0.362c0.551-0.38,0.437-0.893,0.362-1.39
	c-0.148-0.975-0.298-1.949-0.462-2.921c-0.129-0.762-0.495-1.401-1.021-1.967c-0.765-0.825-1.502-1.674-2.316-2.587
	c-0.418,1.77-0.857,3.475-0.436,5.277C150.626,141.341,151.421,142.512,153.037,142.995z"/>
<path style="fill:#00FF7F;" d="M77.594,149.117c0.214,2.265,0.904,4.36,2.495,6.025c1.39,1.455,2.848,2.858,4.387,4.151
	c0.83,0.697,1.854,1.21,2.862,1.639c1.63,0.694,3.314,0.658,4.964-0.029c2.488-1.036,3.603-3.491,2.676-5.97
	c-0.621,1.514-1.366,2.938-2.951,3.544c-1.536,0.587-3.11,0.66-4.584-0.174c0.009-0.099,0.019-0.199,0.028-0.298
	c0.145-0.043,0.288-0.117,0.435-0.125c1.143-0.063,2.115-0.548,3.062-1.149c1.4-0.89,2.17-2.185,2.414-3.775
	c0.206-1.343-0.283-2.513-1.222-3.703c-0.122,0.601-0.204,1.023-0.293,1.445c-0.415,1.959-1.513,3.355-3.386,4.118
	c-4.647,1.894-9.671-1.894-9.152-6.895c0.073-0.703,0.049-1.417,0.136-2.117c0.082-0.667,0.252-1.323,0.39-2.022
	c-3.384,1.54-4.61,6.236-2.581,8.233c-0.142-1.252-0.511-2.49,0.239-3.874C77.552,148.604,77.57,148.861,77.594,149.117z"/>
<path style="fill:#00FF7F;" d="M73.198,102.927c1.559-1.723,2.285-3.822,2.279-6.238c-1.199,0.391-2.321,0.742-3.434,1.125
	c-1.43,0.491-2.424,1.405-2.909,2.889c-0.489,1.499-1.054,2.977-2.223,4.258C69.371,104.976,71.588,104.706,73.198,102.927z"/>
<path style="fill:#00FF7F;" d="M68.146,94.381c0.532,0.334,1.116,0.595,1.698,0.838c1.837,0.766,3.43,0.033,5.013-0.832
	c-2.097-0.325-4.174-0.615-6.015-2.302c0.658-0.204,1.083-0.415,1.522-0.452c0.584-0.049,1.185,0,1.77,0.075
	c1.444,0.186,2.884,0.411,4.489,0.644c-0.236-0.225-0.339-0.323-0.476-0.453c0.576,0.063,1.093,0.119,1.61,0.176
	c-0.326-0.712-0.723-1.248-1.202-1.694c-0.512-0.477-1.103-0.87-1.565-1.227c0.032-0.266,0.138-0.588,0.064-0.636
	c-0.415-0.272-0.862-0.643-1.319-0.675c-0.977-0.07-1.987-0.064-2.948,0.108c-3.148,0.563-5.608,2.259-7.496,4.812
	c-0.145,0.195-0.241,0.426-0.421,0.752c0.383-0.025,0.617-0.029,0.847-0.058C65.301,93.254,66.776,93.523,68.146,94.381z"/>
<path style="fill:#00FF7F;" d="M61.682,84.863c0.169-0.02,0.22-0.01,0.245-0.031c2.202-1.828,4.606-3.298,7.297-4.316
	c0.626-0.237,1.129-0.801,1.914-1.381c-0.889-0.036-1.561,0.401-2.125-0.445c0.336-0.294,0.592-0.609,0.922-0.79
	c0.964-0.53,1.959-1.005,2.938-1.507c0.268-0.137,0.726-0.271,0.749-0.45c0.071-0.566,0.497-0.574,0.843-0.664
	c0.971-0.253,1.953-0.459,3.201-0.746c-1.335-0.331-2.378-0.763-3.543-0.794c-1.531-0.04-2.975,0.346-4.403,0.811
	c-0.47,0.153-0.861,0.145-1.357,0.007c-1.22-0.34-2.265-0.884-2.864-1.739c-0.947-0.201-1.69-0.358-2.465-0.522
	c0.783,1.731,2.133,2.805,3.941,3.54C64.021,78.224,62.225,81.151,61.682,84.863z"/>
<path style="fill:#00FF7F;" d="M71.18,136.974c0.807-0.242,1.387-0.73,1.892-1.342c0.775-0.939,1.523-1.901,2.326-2.907
	c-2.147-0.421-3.976,0.461-5.859,1.388c0.748-2.494,2.855-3.528,7.036-3.633c1.408-1.369,2.733-2.657,4.038-3.926
	c-0.912-0.109-1.856-0.222-2.825-0.338c0.99-1.237,2.403-1.301,3.844-1.734c-2.433-0.344-4.61-0.076-6.648,0.895
	c-4.316,2.055-6.686,5.652-7.803,10.173c-0.423,1.714-0.429,3.455,0.017,5.168c0.454,1.742,1.384,3.224,2.679,4.725
	c0.727-2.257,1.264-4.348,1.774-6.503c-0.954,0.095-1.693,0.673-2.543,0.332c-0.085-0.61,0.165-1.088,0.556-1.412
	C70.113,137.487,70.634,137.138,71.18,136.974z"/>
<path style="fill:#00FF7F;" d="M74.057,115.588c0.012,0.005,0.023,0.011,0.035,0.016c0.001-0.011,0.002-0.022,0.002-0.032
	C74.082,115.577,74.069,115.583,74.057,115.588z"/>
<path style="fill:#00FF7F;" d="M63.236,112.711c0.29-0.225,0.597-0.469,0.91-0.706c0.702-0.533,1.346-0.542,2.058-0.036
	c0.584,0.415,0.835,1.16,0.577,1.899c-0.386,1.106-1.206,1.738-2.342,1.935c-0.539,0.094-1.095,0.091-1.733,0.138
	c1.322,5.808,8.142,7.774,12.608,5.897c-3.331-0.657-6.069-2.221-8.239-4.965c0.215-0.162,0.391-0.263,0.528-0.402
	c1.765-1.796,1.975-4.36,0.516-6.386c-0.799-1.109-1.944-1.453-3.238-1.324c-1.17,0.117-2.112,0.622-2.581,1.791
	C61.862,111.643,62.056,112.128,63.236,112.711z"/>
<path style="fill:#00FF7F;" d="M64.857,129.621c0.854,0.244,1.64,0.128,2.347-0.394c0.755-0.557,0.813-0.954,0.331-1.92
	c-0.249,0.102-0.491,0.236-0.751,0.3c-0.569,0.141-1.193,0.363-1.659-0.168c-0.435-0.496-0.585-1.146-0.374-1.77
	c0.129-0.382,0.431-0.732,0.726-1.024c0.24-0.238,0.585-0.37,1.127-0.694c-0.533-0.078-0.802-0.135-1.072-0.155
	c-1.659-0.122-2.703,0.687-3.009,2.322C62.247,127.585,63.323,129.183,64.857,129.621z"/>
<path style="fill:#00FF7F;" d="M60.492,102.152c-0.211,0.865-0.39,1.737-0.594,2.653c0.712,0.079,1.297,0.193,1.883,0.201
	c1.718,0.022,3.216-0.467,4.103-2.07c0.469-0.848,0.838-1.753,1.304-2.745c-1.14,0.092-1.917,0.872-2.908,1.086
	c0.027-1.62,0.782-2.7,2.224-3.179c0.781-0.259,1.589-0.436,2.463-0.672c-0.82-1.032-1.779-1.766-2.945-2.191
	c-1.285-0.468-2.459-0.202-3.286,0.897c-0.536,0.712-0.99,1.529-1.285,2.368C61.035,99.683,60.791,100.928,60.492,102.152z"/>
<path style="fill:#00FF7F;" d="M69.498,52.059c-0.896,0.141-1.8,0.233-2.7,0.348c-1.404,0.179-2.808,0.371-4.31-0.076
	c1.288,2.48,3.766,3.956,5.704,3.548c2.119-0.446,3.931-1.312,4.677-3.637C71.695,51.978,70.608,51.885,69.498,52.059z"/>
<path style="fill:#00FF7F;" d="M71.845,43.945c0.607,1.649,1.253,3.301,1.821,4.98c0.353,1.046,0.967,1.684,2.092,1.781
	c0.267,0.023,0.532,0.081,0.953,0.147c-0.071-1.019-0.137-1.962-0.211-3.023c1.048,0.359,1.566,1.011,1.863,1.855
	c0.183,0.52,0.32,1.058,0.44,1.597c0.105,0.473,0.362,0.635,0.773,0.578c-0.107-0.249-0.199-0.461-0.29-0.673
	c0.936,0.576,2.066,0.765,2.754,1.816C82.051,47.293,77.336,43.391,71.845,43.945z"/>
<path style="fill:#00FF7F;" d="M62.035,69.223c0.119,0.151,0.395,0.394,0.413,0.379c0.527-0.452,0.842,0.323,1.351,0.27
	c-0.03-0.835-0.664-1.554-0.286-2.466c0.323,0.301,0.556,0.57,0.838,0.772c0.67,0.48,1.306,1.07,2.055,1.363
	c2.481,0.969,5.116,1.184,7.766,1.307c-2.779-1.534-5.29-3.36-7.686-5.359c-0.326-0.273-0.728-0.483-1.127-0.635
	c-1.274-0.485-2.569-0.139-3.306,0.84C61.278,66.724,61.265,68.252,62.035,69.223z"/>
<path style="fill:#00FF7F;" d="M66.775,43.86c-0.352,0.044-0.709,0.077-1.064,0.079c-0.943,0.004-1.886-0.016-2.83-0.02
	c-0.207-0.001-0.415,0.026-0.711,0.046c0.812,1.865,1,3.861,2.153,5.312c0.73,0.162,1.326,0.294,2.013,0.447
	c-0.183-0.693-0.347-1.316-0.558-2.115c1.001,0.612,1.818,1.224,2.727,1.635c0.956,0.432,2,0.672,3.005,0.996
	c0.085-0.077,0.17-0.154,0.255-0.231c-0.486-1.368-0.888-2.774-1.482-4.093C69.628,44.46,68.471,43.651,66.775,43.86z"/>
<path style="fill:#00FF7F;" d="M100.468,169.485c1.082-0.153,1.441-0.886,1.023-1.961c-1.914,0.688-2.633,0.674-3.531-0.044
	c0.458-0.335,0.925-0.677,1.474-1.079c-0.554-0.556-1.067-0.45-1.568-0.33c-0.864,0.207-1.717,0.179-2.572-0.051
	c-0.369-0.099-0.75-0.157-1.422-0.295c0.651,0.833,1.052,1.529,1.621,2.038C96.895,169.016,98.527,169.758,100.468,169.485z"/>
<path style="fill:#00FF7F;" d="M81.522,56.382c-1.928-1.89-4.133-2.856-6.438-3.399c-0.74,0.994-1.329,1.881-2.015,2.687
	c-1.136,1.334-2.586,2.16-4.325,2.481c-1.452,0.268-2.902,0.27-4.361,0.103c-0.296-0.034-0.595-0.056-0.951-0.089
	c0.839,1.13,1.679,1.699,3.034,2.017c2.119,0.497,4.252,0.53,6.292-0.258c1.76-0.68,3.447-1.551,5.163-2.346
	C79.021,57.066,80.084,56.452,81.522,56.382z"/>
<path style="fill:#00FF7F;" d="M147.763,143.782c0.138,0.699,0.307,1.355,0.39,2.022c0.087,0.7,0.063,1.414,0.136,2.117
	c0.52,5.001-4.505,8.789-9.152,6.895c-1.872-0.763-2.971-2.159-3.386-4.118c-0.089-0.421-0.171-0.844-0.293-1.445
	c-0.939,1.189-1.428,2.359-1.222,3.703c0.244,1.59,1.014,2.885,2.414,3.775c0.946,0.602,1.919,1.087,3.062,1.149
	c0.147,0.008,0.29,0.081,0.435,0.125c0.009,0.1,0.019,0.199,0.028,0.298c-1.474,0.834-3.048,0.761-4.584,0.174
	c-1.585-0.606-2.33-2.03-2.951-3.544c-0.927,2.479,0.187,4.934,2.676,5.97c1.65,0.687,3.334,0.723,4.964,0.029
	c1.008-0.429,2.032-0.942,2.862-1.639c1.54-1.293,2.997-2.696,4.387-4.151c1.591-1.665,2.281-3.761,2.495-6.025
	c0.024-0.256,0.042-0.513,0.079-0.976c0.751,1.384,0.381,2.622,0.239,3.874C152.372,150.018,151.146,145.322,147.763,143.782z"/>
<path style="fill:#00FF7F;" d="M158.484,100.703c-0.484-1.484-1.479-2.398-2.909-2.889c-1.112-0.382-2.235-0.733-3.434-1.125
	c-0.006,2.416,0.72,4.515,2.279,6.238c1.61,1.779,3.828,2.049,6.287,2.034C159.538,103.679,158.973,102.201,158.484,100.703z"/>
<path style="fill:#00FF7F;" d="M163.901,93.457c0.23,0.029,0.464,0.033,0.847,0.058c-0.181-0.326-0.277-0.557-0.421-0.752
	c-1.888-2.554-4.349-4.249-7.496-4.812c-0.962-0.172-1.972-0.177-2.948-0.108c-0.458,0.033-0.904,0.403-1.319,0.675
	c-0.074,0.048,0.032,0.37,0.064,0.636c-0.463,0.357-1.053,0.751-1.565,1.227c-0.479,0.446-0.875,0.982-1.202,1.694
	c0.517-0.056,1.034-0.113,1.61-0.176c-0.136,0.13-0.239,0.228-0.476,0.453c1.605-0.233,3.045-0.458,4.489-0.644
	c0.585-0.075,1.186-0.124,1.77-0.075c0.439,0.037,0.865,0.248,1.522,0.452c-1.841,1.686-3.918,1.977-6.015,2.302
	c1.583,0.865,3.176,1.598,5.013,0.832c0.582-0.243,1.166-0.504,1.698-0.838C160.842,93.523,162.317,93.254,163.901,93.457z"/>
<path style="fill:#00FF7F;" d="M164.585,72.296c-0.775,0.164-1.518,0.322-2.465,0.522c-0.6,0.855-1.645,1.399-2.865,1.739
	c-0.495,0.138-0.887,0.146-1.356-0.007c-1.429-0.465-2.872-0.851-4.403-0.811c-1.165,0.03-2.208,0.463-3.543,0.794
	c1.248,0.287,2.231,0.493,3.202,0.746c0.346,0.09,0.772,0.097,0.843,0.664c0.023,0.179,0.481,0.313,0.749,0.45
	c0.98,0.503,1.974,0.977,2.938,1.507c0.33,0.181,0.586,0.496,0.922,0.79c-0.564,0.847-1.236,0.409-2.125,0.445
	c0.785,0.58,1.288,1.144,1.914,1.381c2.69,1.018,5.094,2.489,7.296,4.316c0.026,0.021,0.077,0.011,0.246,0.031
	c-0.544-3.712-2.339-6.639-5.292-9.027C162.452,75.101,163.802,74.027,164.585,72.296z"/>
<path style="fill:#00FF7F;" d="M155.965,138.938c0.51,2.156,1.048,4.247,1.775,6.503c1.295-1.5,2.225-2.983,2.679-4.725
	c0.447-1.713,0.441-3.455,0.018-5.168c-1.117-4.521-3.486-8.118-7.803-10.173c-2.039-0.97-4.215-1.238-6.648-0.895
	c1.441,0.434,2.854,0.497,3.844,1.734c-0.969,0.116-1.912,0.229-2.825,0.338c1.306,1.269,2.63,2.557,4.038,3.926
	c4.18,0.106,6.288,1.139,7.036,3.633c-1.883-0.927-3.712-1.809-5.859-1.388c0.803,1.006,1.55,1.968,2.325,2.907
	c0.505,0.612,1.085,1.099,1.892,1.342c0.547,0.164,1.067,0.513,1.513,0.883c0.392,0.325,0.642,0.802,0.556,1.412
	C157.658,139.611,156.92,139.033,155.965,138.938z"/>
<path style="fill:#00FF7F;" d="M153.562,115.588c-0.012-0.005-0.025-0.011-0.037-0.016c0,0.01,0.001,0.021,0.002,0.032
	C153.538,115.599,153.55,115.594,153.562,115.588z"/>
<path style="fill:#00FF7F;" d="M165.318,110.551c-0.469-1.169-1.412-1.675-2.581-1.791c-1.294-0.129-2.438,0.215-3.238,1.324
	c-1.459,2.026-1.25,4.59,0.516,6.386c0.137,0.14,0.313,0.241,0.528,0.402c-2.17,2.744-4.908,4.309-8.239,4.965
	c4.466,1.877,11.286-0.089,12.608-5.897c-0.638-0.047-1.194-0.044-1.733-0.138c-1.135-0.197-1.955-0.829-2.341-1.935
	c-0.258-0.739-0.007-1.484,0.577-1.899c0.712-0.506,1.356-0.496,2.058,0.036c0.313,0.237,0.62,0.481,0.91,0.706
	C165.562,112.128,165.756,111.643,165.318,110.551z"/>
<path style="fill:#00FF7F;" d="M162.761,129.621c1.534-0.439,2.609-2.036,2.334-3.504c-0.306-1.635-1.35-2.444-3.009-2.322
	c-0.271,0.02-0.539,0.076-1.073,0.155c0.542,0.325,0.887,0.456,1.127,0.694c0.295,0.293,0.597,0.642,0.726,1.024
	c0.211,0.625,0.061,1.275-0.374,1.77c-0.466,0.531-1.09,0.309-1.659,0.168c-0.26-0.064-0.503-0.199-0.751-0.3
	c-0.482,0.967-0.424,1.363,0.331,1.92C161.122,129.749,161.908,129.865,162.761,129.621z"/>
<path style="fill:#00FF7F;" d="M167.72,104.805c-0.204-0.916-0.383-1.788-0.594-2.653c-0.299-1.224-0.543-2.469-0.959-3.652
	c-0.295-0.839-0.749-1.657-1.284-2.368c-0.827-1.099-2.002-1.365-3.286-0.897c-1.166,0.425-2.125,1.159-2.945,2.191
	c0.874,0.235,1.683,0.413,2.463,0.672c1.442,0.478,2.197,1.559,2.224,3.179c-0.992-0.214-1.768-0.994-2.908-1.086
	c0.467,0.992,0.835,1.896,1.304,2.745c0.887,1.604,2.386,2.093,4.103,2.07C166.423,104.998,167.008,104.884,167.72,104.805z"/>
<path style="fill:#00FF7F;" d="M159.427,55.88c1.938,0.408,4.416-1.068,5.704-3.548c-1.502,0.447-2.906,0.254-4.31,0.076
	c-0.9-0.115-1.804-0.207-2.7-0.348c-1.111-0.174-2.197-0.081-3.37,0.183C155.496,54.568,157.308,55.433,159.427,55.88z"/>
<path style="fill:#00FF7F;" d="M145.579,53.004c0.688-1.051,1.817-1.24,2.753-1.816c-0.091,0.212-0.183,0.424-0.29,0.673
	c0.411,0.057,0.668-0.105,0.773-0.578c0.12-0.538,0.257-1.077,0.44-1.597c0.298-0.844,0.816-1.496,1.864-1.855
	c-0.074,1.061-0.14,2.003-0.211,3.023c0.421-0.066,0.685-0.124,0.953-0.147c1.124-0.097,1.738-0.736,2.092-1.781
	c0.567-1.679,1.213-3.331,1.821-4.98C150.282,43.391,145.567,47.293,145.579,53.004z"/>
<path style="fill:#00FF7F;" d="M162.258,64.853c-0.4,0.152-0.801,0.363-1.128,0.635c-2.396,1.998-4.907,3.825-7.686,5.359
	c2.651-0.124,5.285-0.338,7.766-1.307c0.749-0.293,1.386-0.883,2.055-1.363c0.282-0.202,0.516-0.471,0.839-0.772
	c0.378,0.912-0.255,1.632-0.286,2.466c0.509,0.053,0.823-0.722,1.351-0.27c0.018,0.015,0.293-0.228,0.413-0.379
	c0.77-0.97,0.757-2.499-0.019-3.529C164.826,64.715,163.532,64.368,162.258,64.853z"/>
<path style="fill:#00FF7F;" d="M161.907,43.939c-0.355-0.001-0.711-0.035-1.064-0.079c-1.696-0.21-2.853,0.6-3.508,2.055
	c-0.593,1.32-0.995,2.726-1.481,4.093c0.085,0.077,0.17,0.154,0.255,0.231c1.005-0.324,2.048-0.563,3.005-0.996
	c0.908-0.411,1.725-1.023,2.727-1.635c-0.211,0.799-0.376,1.422-0.559,2.115c0.687-0.153,1.284-0.285,2.013-0.447
	c1.153-1.451,1.341-3.448,2.153-5.312c-0.296-0.02-0.503-0.047-0.71-0.046C163.794,43.923,162.85,43.943,161.907,43.939z"/>
<path style="fill:#00FF7F;" d="M127.151,169.485c1.941,0.274,3.573-0.469,4.973-1.722c0.569-0.509,0.97-1.205,1.621-2.038
	c-0.672,0.138-1.052,0.196-1.421,0.295c-0.855,0.23-1.707,0.259-2.572,0.051c-0.501-0.12-1.014-0.225-1.567,0.33
	c0.549,0.401,1.016,0.744,1.474,1.079c-0.898,0.718-1.617,0.732-3.531,0.044C125.709,168.599,126.069,169.332,127.151,169.485z"/>
<path style="fill:#00FF7F;" d="M164.187,58.165c-0.357,0.033-0.655,0.056-0.952,0.089c-1.458,0.166-2.909,0.165-4.361-0.103
	c-1.739-0.322-3.189-1.148-4.325-2.481c-0.686-0.806-1.276-1.693-2.015-2.687c-2.304,0.543-4.509,1.509-6.437,3.399
	c1.438,0.07,2.5,0.684,3.602,1.195c1.715,0.795,3.402,1.666,5.162,2.346c2.04,0.788,4.174,0.755,6.292,0.258
	C162.508,59.863,163.347,59.295,164.187,58.165z"/>
<path style="fill:#00FF7F;" d="M96.568,95.944c0.315,0.503,0.507,0.848,0.735,1.166c0.582,0.811,1.371,1.274,2.37,1.39
	c2.057,0.238,3.778-0.419,5.3-1.968c-0.451-0.409-0.869-0.788-1.315-1.192c-0.327-0.325-1.291-1.196-2.768-1.355
	C98.352,93.712,96.679,95.801,96.568,95.944z"/>
<path style="fill:#00FF7F;" d="M92.415,91.19c4.006-0.484,7.924-1.018,11.8,0.352C100.433,88.959,94.75,88.771,92.415,91.19z"/>
<path style="fill:#00FF7F;" d="M102.967,104.456c-0.897,0.079-1.716,0.151-2.535,0.223c0.382-0.322,0.789-0.457,1.195-0.597
	c0.372-0.128,0.81-0.176,1.1-0.408c0.947-0.757,1.84-1.582,2.753-2.381c-1.085,0.442-2.008,1.238-3.249,1.291
	c1.754-0.874,3.211-2.075,4.308-3.71c-0.25,0.018-0.429,0.147-0.625,0.237c-1.253,0.576-2.461,1.331-3.775,1.676
	c-3.712,0.976-7.128,0.118-10.197-2.125c-1.853-1.355-3.087-3.143-3.504-5.444c-0.062-0.344-0.186-0.677-0.312-1.127
	c-1.898,4.299-0.263,8.858,3.394,11.84C94.857,106.651,100.115,106.652,102.967,104.456z"/>
<path style="fill:#00FF7F;" d="M109.912,89.21c-0.077-1.659-0.771-2.937-2.29-3.742c-2.771-1.469-5.722-1.683-8.761-1.325
	c-2.135,0.251-4.035,1.079-5.696,2.44c-0.373,0.306-0.684,0.686-1.023,1.033c0.255,0.099,0.392,0.024,0.533,0.013
	c0.662-0.051,1.188-0.614,1.911-0.466c0.456,0.093,0.933,0.133,1.398,0.12c3.257-0.09,6.348,0.588,9.281,1.987
	c1.493,0.712,2.966,1.466,4.653,2.303C109.918,90.628,109.945,89.918,109.912,89.21z"/>
<path style="fill:#00FF7F;" d="M106.765,80.823c-2.257-1.095-4.495-1.278-6.81,0.303c3.568-0.012,6.79,0.846,10.013,2.56
	C109.162,82.579,107.721,81.287,106.765,80.823z"/>
<path style="fill:#00FF7F;" d="M91.619,126.103c2.99-0.954,4.35-3.312,5.21-6.091c0.019-0.061-0.037-0.146-0.07-0.26
	c-0.103,0.134-0.19,0.248-0.311,0.404c-0.033-0.293-0.062-0.549-0.091-0.804c-0.917,1.472-1.966,2.736-3.161,3.898
	c-1.214,1.18-2.696,1.96-4.12,2.878C89.947,126.325,90.79,126.367,91.619,126.103z"/>
<path style="fill:#00FF7F;" d="M97.794,112.235c0.165,0.085,0.345,0.165,0.527,0.191c0.395,0.058,0.795,0.097,1.194,0.112
	c0.474,0.017,0.954,0.042,1.422-0.013c0.543-0.063,1.108-0.132,1.608-0.335c1.307-0.532,2.213-1.571,2.804-2.783
	c0.864-1.771,1.555-3.626,2.305-5.451c0.071-0.172,0.029-0.39,0.047-0.727c-3.238,3.62-7.091,5.751-11.762,6.232
	c-0.416,1.497-0.289,1.754,1.042,2.313C97.266,111.894,97.517,112.093,97.794,112.235z"/>
<path style="fill:#00FF7F;" d="M88.945,123.854c0.267-0.062,0.534-0.143,0.787-0.247c1.819-0.743,3.218-1.972,4.19-3.678
	c0.442-0.776,0.907-1.553,0.719-2.449c-1.119,0.861-2.208,1.819-3.415,2.594c-1.229,0.789-2.574,1.398-4.021,2.167
	c0.665-0.043,1.163-0.075,1.66-0.107c0.027,0.058,0.054,0.116,0.08,0.173c-0.515,0.295-1.031,0.589-1.516,0.866
	C87.732,123.938,88.3,124.003,88.945,123.854z"/>
<path style="fill:#00FF7F;" d="M104.578,141.954c-1.332-1.782-2.448-3.656-2.72-5.906c-0.267-2.212-0.039-4.393,0.51-6.581
	c-0.77,0.887-1.438,1.807-2.06,2.756c-1.068,1.628-0.991,3.367-0.361,5.11C100.76,139.579,102.497,140.934,104.578,141.954z"/>
<path style="fill:#00FF7F;" d="M111.427,135.996c-0.139,1.458,0.31,2.671,1.491,3.66c0.255-2.457,0.424-3.204,0.891-3.877
	c0.467,0.673,0.637,1.42,0.891,3.877c1.181-0.989,1.63-2.202,1.491-3.66c-0.179-1.874-1.148-3.34-2.382-4.741
	C112.575,132.657,111.606,134.122,111.427,135.996z"/>
<path style="fill:#00FF7F;" d="M113.809,143.965c5.942,0.201,8.362-3.291,9.698-7.006c1.252-3.48,0.151-7.635-2.471-9.691
	c0.726,2.635,1.536,5.175,0.521,8.099c0.036-2.792-0.872-4.937-2.715-6.936c0.073,0.459,0.098,0.722,0.158,0.976
	c0.181,0.769,0.401,1.53,0.561,2.303c0.796,3.841-0.605,6.98-3.164,9.727c-0.429,0.46-0.955,0.829-1.421,1.255
	c-0.378,0.346-0.745,0.711-1.166,1.122c-0.422-0.411-0.788-0.776-1.166-1.122c-0.467-0.426-0.993-0.795-1.422-1.255
	c-2.56-2.747-3.96-5.886-3.164-9.727c0.16-0.773,0.38-1.534,0.561-2.303c0.06-0.254,0.085-0.517,0.158-0.976
	c-1.843,1.999-2.751,4.144-2.715,6.936c-1.015-2.923-0.205-5.464,0.521-8.099c-2.622,2.056-3.723,6.211-2.471,9.691
	C105.447,140.674,107.867,144.165,113.809,143.965z"/>
<path style="fill:#00FF7F;" d="M98.862,130.103c1.402-1.696,2.341-3.64,3.18-5.654c0.468-1.123,0.98-2.25,1.638-3.267
	c1.206-1.86,2.819-3.288,4.964-4.026c0.394-0.135,0.775-0.305,1.191-0.47c-0.856-0.927-1.679-1.224-3.048-1
	c-3.442,0.563-6.125,2.238-7.691,5.451c-0.674,1.383-1.248,2.817-1.951,4.184c-1.947,3.785-4.925,6.214-9.232,6.804
	c-0.819,0.112-1.651,0.122-2.776,0.199c0.85,0.352,1.456,0.6,2.06,0.854C91.076,134.812,95.984,133.583,98.862,130.103z"/>
<path style="fill:#00FF7F;" d="M108.012,77.619c-0.484-0.77-0.877-1.35-1.22-1.958c-0.345-0.612-0.602-1.263-0.645-2.195
	c3.134,2.207,5.32,4.867,6.355,8.685c-0.012-2.489-0.435-4.636-1.517-6.617c-1.19-2.178-2.981-3.793-5.124-4.962
	c-1.686-0.919-3.489-1.625-5.319-2.462C102,72.144,103.739,75.764,108.012,77.619z"/>
<path style="fill:#00FF7F;" d="M127.945,98.5c0.999-0.116,1.788-0.579,2.37-1.39c0.228-0.318,0.42-0.663,0.735-1.166
	c-0.11-0.143-1.783-2.232-4.323-1.96c-1.476,0.159-2.44,1.03-2.768,1.355c-0.445,0.404-0.863,0.783-1.314,1.192
	C124.167,98.081,125.888,98.738,127.945,98.5z"/>
<path style="fill:#00FF7F;" d="M135.203,91.19c-2.335-2.42-8.018-2.232-11.8,0.352C127.279,90.173,131.197,90.707,135.203,91.19z"/>
<path style="fill:#00FF7F;" d="M139.492,92.091c-0.127,0.449-0.25,0.783-0.312,1.127c-0.416,2.301-1.651,4.089-3.504,5.444
	c-3.068,2.243-6.485,3.1-10.196,2.125c-1.315-0.345-2.522-1.101-3.775-1.676c-0.196-0.09-0.375-0.218-0.625-0.237
	c1.097,1.636,2.554,2.836,4.308,3.71c-1.242-0.053-2.165-0.848-3.249-1.291c0.914,0.799,1.807,1.624,2.753,2.381
	c0.29,0.232,0.728,0.28,1.1,0.408c0.406,0.14,0.814,0.275,1.195,0.597c-0.819-0.072-1.638-0.144-2.535-0.223
	c2.852,2.196,8.111,2.195,11.447-0.524C139.755,100.949,141.39,96.39,139.492,92.091z"/>
<path style="fill:#00FF7F;" d="M119.996,85.468c-1.519,0.805-2.213,2.083-2.29,3.742c-0.033,0.707-0.006,1.418-0.006,2.361
	c1.687-0.837,3.16-1.591,4.653-2.303c2.933-1.399,6.025-2.077,9.281-1.987c0.465,0.013,0.942-0.027,1.398-0.12
	c0.724-0.148,1.249,0.415,1.911,0.466c0.141,0.011,0.278,0.087,0.533-0.013c-0.34-0.346-0.651-0.727-1.023-1.033
	c-1.66-1.361-3.56-2.188-5.695-2.44C125.718,83.785,122.767,83.999,119.996,85.468z"/>
<path style="fill:#00FF7F;" d="M120.853,80.823c-0.956,0.464-2.396,1.757-3.204,2.864c3.224-1.715,6.445-2.573,10.014-2.56
	C125.348,79.545,123.111,79.727,120.853,80.823z"/>
<path style="fill:#00FF7F;" d="M131.261,119.351c-0.029,0.256-0.058,0.511-0.091,0.804c-0.12-0.156-0.207-0.27-0.31-0.404
	c-0.033,0.115-0.089,0.199-0.07,0.26c0.86,2.779,2.22,5.137,5.21,6.091c0.829,0.265,1.672,0.222,2.543,0.023
	c-1.423-0.918-2.906-1.698-4.12-2.878C133.227,122.087,132.178,120.823,131.261,119.351z"/>
<path style="fill:#00FF7F;" d="M122.269,109.407c0.591,1.212,1.498,2.251,2.804,2.783c0.5,0.203,1.065,0.272,1.608,0.335
	c0.468,0.055,0.949,0.03,1.422,0.013c0.399-0.014,0.799-0.054,1.193-0.112c0.182-0.027,0.362-0.106,0.527-0.191
	c0.277-0.143,0.528-0.341,0.813-0.461c1.331-0.56,1.458-0.816,1.042-2.313c-4.672-0.481-8.524-2.612-11.763-6.232
	c0.018,0.337-0.023,0.555,0.047,0.727C120.713,105.782,121.405,107.637,122.269,109.407z"/>
<path style="fill:#00FF7F;" d="M140.414,122.24c-1.447-0.769-2.793-1.378-4.021-2.167c-1.207-0.775-2.296-1.733-3.415-2.594
	c-0.188,0.895,0.277,1.673,0.719,2.449c0.971,1.707,2.371,2.936,4.19,3.678c0.254,0.104,0.52,0.185,0.787,0.247
	c0.645,0.149,1.213,0.085,1.516-0.681c-0.486-0.278-1.001-0.572-1.516-0.866c0.027-0.058,0.053-0.116,0.08-0.173
	C139.251,122.165,139.749,122.197,140.414,122.24z"/>
<path style="fill:#00FF7F;" d="M122.075,122.035c-0.928-0.727-1.808-1.548-2.826-2.119c-1.735-0.972-3.565-1.252-5.44-0.143
	c-1.875-1.11-3.706-0.83-5.44,0.143c-1.018,0.571-1.898,1.392-2.827,2.119c-0.152,0.119-0.228,0.335-0.391,0.585
	c3.114-0.669,3.65-0.865,4.016-1.442c0.343,0.026,0.679,0.051,1.115,0.084c-0.178-0.151-0.261-0.221-0.426-0.36
	c1.229-0.037,2.387-0.26,3.427,0.511c0.139,0.103,0.342,0.172,0.526,0.182c0.184-0.01,0.386-0.079,0.525-0.182
	c1.04-0.771,2.198-0.548,3.427-0.511c-0.165,0.139-0.247,0.209-0.426,0.36c0.436-0.033,0.772-0.058,1.115-0.084
	c0.366,0.577,0.902,0.773,4.016,1.442C122.304,122.37,122.228,122.154,122.075,122.035z"/>
<path style="fill:#00FF7F;" d="M127.67,137.333c0.631-1.743,0.707-3.482-0.361-5.11c-0.622-0.949-1.29-1.869-2.06-2.756
	c0.548,2.189,0.776,4.369,0.51,6.581c-0.272,2.25-1.388,4.125-2.72,5.906C125.121,140.934,126.858,139.579,127.67,137.333z"/>
<path style="fill:#00FF7F;" d="M140.422,133.178c0.603-0.254,1.21-0.502,2.06-0.854c-1.125-0.077-1.958-0.087-2.776-0.199
	c-4.307-0.59-7.285-3.019-9.232-6.804c-0.704-1.368-1.278-2.801-1.951-4.184c-1.566-3.214-4.249-4.888-7.692-5.451
	c-1.369-0.224-2.191,0.073-3.048,1c0.415,0.165,0.797,0.335,1.191,0.47c2.145,0.738,3.758,2.165,4.964,4.026
	c0.659,1.017,1.171,2.144,1.638,3.267c0.839,2.015,1.778,3.959,3.18,5.654C131.634,133.583,136.542,134.812,140.422,133.178z"/>
<path style="fill:#00FF7F;" d="M117.532,125.79c0.087-0.201,0.436-0.293,0.673-0.422c0.31-0.169,0.631-0.319,0.939-0.492
	c0.129-0.072,0.237-0.182,0.585-0.455c-2.024-0.156-3.985-0.249-5.92-0.259c-1.935,0.009-3.896,0.103-5.92,0.259
	c0.348,0.274,0.456,0.383,0.585,0.455c0.308,0.173,0.629,0.323,0.939,0.492c0.237,0.129,0.586,0.221,0.674,0.422
	c0.191,0.439,0.58,0.511,0.923,0.662c0.863,0.381,1.821,0.565,2.799,0.563c0.978,0.003,1.936-0.181,2.799-0.563
	C116.951,126.301,117.341,126.229,117.532,125.79z"/>
<path style="fill:#00FF7F;" d="M116.633,75.534c-1.083,1.981-1.505,4.128-1.517,6.617c1.034-3.818,3.22-6.478,6.354-8.685
	c-0.043,0.932-0.299,1.583-0.645,2.195c-0.343,0.608-0.737,1.187-1.22,1.958c4.273-1.855,6.012-5.475,7.47-9.509
	c-1.83,0.837-3.632,1.543-5.319,2.462C119.615,71.741,117.823,73.356,116.633,75.534z"/>
<path style="fill:#00FF7F;" d="M116.069,97.567c-0.143-1.593-1.658-9.115-2.26-11.54c-0.602,2.425-2.117,9.947-2.26,11.54
	c-0.377,4.185-0.742,8.372-1.116,12.606c-1.225-0.232-1.716-1.184-2.308-2.161c-0.451,0.908-0.904,1.66-1.201,2.47
	c-0.211,0.576-0.254,1.226-0.292,1.848c-0.021,0.348,0.226,0.574,0.678,0.515c0.14-0.199,0.309-0.412,0.45-0.643
	c0.24-0.393,0.612-0.525,1.02-0.435c0.76,0.166,1.524,0.278,2.15,0.875c0.535,0.509,1.203,0.89,1.845,1.274
	c0.332,0.199,0.682,0.291,1.036,0.273c0.354,0.018,0.704-0.075,1.036-0.273c0.642-0.384,1.31-0.764,1.845-1.274
	c0.626-0.596,1.39-0.708,2.15-0.875c0.408-0.09,0.78,0.042,1.02,0.435c0.141,0.231,0.31,0.444,0.45,0.643
	c0.452,0.059,0.699-0.166,0.678-0.515c-0.038-0.622-0.081-1.272-0.292-1.848c-0.297-0.81-0.75-1.562-1.201-2.47
	c-0.592,0.977-1.084,1.929-2.308,2.161C116.811,105.939,116.445,101.753,116.069,97.567z"/>
<path style="fill:#00FF7F;" d="M144.401,115.007c-3.812-2.421-5.985-5.652-5.864-10.398c-1.629,2.181-1.369,4.252-0.496,6.339
	C138.954,113.132,141.394,115.061,144.401,115.007z"/>
<path style="fill:#00FF7F;" d="M140.256,83.444c-2.353-0.971-4.819-1.493-7.435-1.617c1.4,0.949,2.8,1.897,4.2,2.846
	c1.16,0.087,1.861,1.102,2.883,1.435c0.651,0.212,0.777,1.002,1.461,1.128c0.697,0.129,1.379,0.349,2.079,0.437
	c0.664,0.083,1.345,0.089,2.014,0.047c0.708-0.045,1.41-0.181,2.113-0.288c0.372-0.057,0.74-0.136,1.352-0.25
	c-0.274-0.158-0.369-0.227-0.474-0.272C145.72,85.751,142.997,84.575,140.256,83.444z"/>
<path style="fill:#00FF7F;" d="M147.288,117.985c-5.128,0.78-9.657-2.121-11.101-7.093c-0.041-0.141-0.083-0.281-0.13-0.44
	c-0.192,0.064-0.327,0.109-0.495,0.166c-0.02-0.398-0.039-0.788-0.062-1.247c-0.83,1.517-0.408,3.676,0.255,5.005
	c1.46,2.926,3.831,4.693,7.002,5.317c3.042,0.598,6.007,0.372,8.628-1.487c0.795-0.564,1.455-1.325,2.14-2.032
	c0.095-0.098,0.015-0.364-0.001-0.57c-0.631,0.289-1.27,0.564-1.892,0.873C150.248,117.164,148.826,117.751,147.288,117.985z"/>
<path style="fill:#00FF7F;" d="M156.986,117.309c0.45-0.412,0.667-0.83,0.431-1.461c-0.219-0.583-0.332-1.206-0.51-1.877
	c-1.592,0.391-3.071,0.138-4.535-0.444c-2.504-0.996-4.127-2.873-5.24-5.224c-0.624-1.317-1.085-2.712-1.614-4.073
	c-0.453-1.166-0.898-2.334-1.451-3.489c-0.344,1.878-0.469,3.757-0.479,5.878c-0.823-1.178-0.727-2.403-1.272-3.547
	c-0.892,2.07-0.652,3.994,0.098,5.894c0.924,2.343,2.727,3.838,4.94,4.865c1.798,0.834,3.677,1.434,5.679,1.566
	c0.167,0.011,0.327,0.109,0.49,0.176c-0.001-0.003-0.001-0.008-0.001-0.011c0.856,0.009,1.725-0.099,2.711,0.296
	c-0.629,0.994-1.221,1.93-1.937,3.062C155.403,118.423,156.255,117.978,156.986,117.309z"/>
<path style="fill:#00FF7F;" d="M126.799,64.132c-0.629,0.69-1.305,1.337-1.9,2.066c3.409-1.047,6.163-2.83,7.078-6.538
	c0.73-2.957,0.331-5.708-1.863-8.24c0,0.688,0.041,1.113-0.007,1.527c-0.168,1.444-0.267,2.907-0.59,4.318
	c-0.206,0.895-0.749,1.716-1.169,2.556c-0.166,0.331-0.41,0.623-0.551,0.976c1.175-0.915,1.877-2.177,2.625-3.426
	c-0.158,1.534-0.599,2.986-1.478,4.247C128.317,62.519,127.541,63.318,126.799,64.132z"/>
<path style="fill:#00FF7F;" d="M149.778,96.487c0.031-0.821-0.182-1.446-0.839-1.943c-1.033-0.782-2.047-1.588-3.069-2.384
	c-0.399-0.311-0.798-0.622-1.289-1.005c-0.35,6.015,2.02,9.636,6.946,11.767c-0.1-0.2-0.153-0.334-0.229-0.454
	C150.141,100.639,149.697,98.619,149.778,96.487z"/>
<path style="fill:#00FF7F;" d="M138.096,76.256c0.538,0.25,1.006,0.259,1.654,0.024c1.245-0.452,2.604-0.601,3.923-0.831
	c0.695-0.121,1.406-0.146,2.142-0.217c-2.007-1.969-6.258-1.894-9.188,0.23C137.204,75.776,137.637,76.043,138.096,76.256z"/>
<path style="fill:#00FF7F;" d="M140.879,66.722c-5.318-0.09-9.624,1.84-12.523,6.465c-0.21,0.335-0.424,0.666-0.625,1.006
	c-0.029,0.05,0.008,0.139,0.019,0.275c0.839-0.32,1.668-0.623,2.487-0.951c3.135-1.258,6.387-2.051,9.749-2.311
	c1.277-0.099,2.296-0.596,3.128-1.472c0.752-0.792,1.386-1.696,2.13-2.622C143.678,66.966,142.28,66.745,140.879,66.722z"/>
<path style="fill:#00FF7F;" d="M126.854,78.484c1.618,0.079,3.258,0,4.852,0.234c1.828,0.268,3.618,0.804,5.422,1.228
	c0.269,0.063,0.542,0.128,0.797,0.231c1.628,0.653,3.169,0.699,4.749-0.276c1.133-0.699,2.443-0.905,3.759-0.368
	c0.103,0.042,0.189,0.125,0.404,0.27c-1.214,0.429-2.148,1.059-3.088,2.008c1.147,0.421,2.189,0.533,3.292,0.384
	c1.206-0.162,2.421-0.252,3.755-0.386c0.043-0.091,0.153-0.33,0.279-0.601c0.959-0.128,1.549,0.46,2.109,1.071
	c0.254,0.278,0.214,0.631-0.137,0.795c-0.383,0.179-0.814,0.359-1.224,0.358c-1.093-0.002-2.107,0.267-3.158,0.692
	c1.325,1.248,2.904,1.626,4.605,1.431c2.211-0.254,4.237-1.093,6.278-2.221c-0.254-0.15-0.414-0.248-0.576-0.342
	c-1.37-0.79-2.803-1.489-4.098-2.387c-2.402-1.665-5.081-2.492-7.905-3.037c-2.192-0.423-4.256-0.143-6.221,0.852
	c-0.803,0.406-1.568,0.44-2.401,0.192c-1.551-0.462-3.09-0.999-4.67-1.325c-2.151-0.443-4.332-0.358-6.475,0.151
	c-0.552,0.131-1.068,0.415-1.655,0.651C125.977,78.631,126.446,78.463,126.854,78.484z"/>
<path style="fill:#00FF7F;" d="M124.728,45.229c0.162,2.445,0.318,4.797,0.477,7.196c0.135-0.172,0.281-0.357,0.52-0.66
	c0.159,1.262,0.473,2.423,0.403,3.56c-0.071,1.147-0.521,2.271-0.818,3.453c1.905-0.768,2.396-2.416,2.802-4.089
	c0.35-1.443,0.263-2.909-0.006-4.357C127.703,48.17,126.518,46.524,124.728,45.229z"/>
<path style="fill:#00FF7F;" d="M141.667,152.094c2.068-0.059,3.464-1.469,3.4-3.434c-0.061-1.861-1.527-3.24-3.389-3.186
	c-1.855,0.053-3.382,1.576-3.314,3.306C138.44,150.683,139.896,152.145,141.667,152.094z M141.658,147.52
	c0.763-0.032,1.455,0.724,1.429,1.559c-0.021,0.645-0.729,1.246-1.476,1.253c-0.74,0.007-1.494-0.714-1.464-1.4
	C140.176,148.242,140.916,147.551,141.658,147.52z"/>
<path style="fill:#00FF7F;" d="M135.324,63.211c-0.727,0.763-1.333,1.642-1.862,2.656c0.238-0.051,0.476-0.102,0.714-0.154
	c1.155-0.255,2.303-0.559,3.468-0.753c1.316-0.219,2.356-0.86,3.245-1.815c0.485-0.521,0.964-1.053,1.5-1.518
	c0.368-0.32,0.829-0.535,1.351-0.71c0.011,1.567-0.99,2.694-1.587,4.124c2.102,0.298,4.1,0.468,5.758-1.187
	c0.453-0.452,0.926-0.86,1.799-0.723c-0.126,0.664-0.245,1.299-0.388,2.058c0.828-0.213,1.636-0.42,2.451-0.63
	c0.15,0.982-0.357,1.911-1.276,2.279c-0.43,0.172-0.915,0.245-1.382,0.277c-0.666,0.045-1.338,0.012-2.089,0.012
	c-0.508,1.734-1.145,3.386-2.858,4.683c1.668-0.156,3.03-0.263,4.285-0.857c1.175-0.556,2.484-0.92,3.262-2.098
	c1.321-0.581,2.121-1.725,2.949-2.811c0.816-1.07,1.431-2.269,1.894-3.668c-2.535-0.028-4.826-0.584-7.088-1.334
	c-2.103-0.698-4.236-1.272-6.487-1.279C139.897,59.749,137.4,61.03,135.324,63.211z"/>
<path style="fill:#00FF7F;" d="M83.217,115.007c3.008,0.054,5.448-1.875,6.361-4.059c0.873-2.087,1.132-4.158-0.497-6.339
	C89.202,109.355,87.029,112.586,83.217,115.007z"/>
<path style="fill:#00FF7F;" d="M78.937,131.499c-0.645,0.882-0.756,1.896-0.504,2.935c0.129,0.531,0.322,1.055,0.551,1.552
	c0.574,1.248,1.179,2.481,1.784,3.713c0.235,0.477,0.503,0.938,0.814,1.515c0.329-0.504,0.6-0.888,0.84-1.29
	c1.345-2.258,1.696-4.524,0.237-6.91c-0.725-1.186-1.07-2.536-1.067-4.086C80.443,129.686,79.635,130.544,78.937,131.499z"/>
<path style="fill:#00FF7F;" d="M84.173,87.672c0.7-0.087,1.384-0.308,2.08-0.437c0.684-0.127,0.809-0.916,1.461-1.128
	c1.022-0.333,1.723-1.348,2.883-1.435c1.4-0.949,2.8-1.897,4.2-2.846c-2.616,0.125-5.083,0.646-7.435,1.617
	c-2.741,1.132-5.463,2.308-8.193,3.467c-0.106,0.045-0.201,0.114-0.474,0.272c0.612,0.114,0.98,0.193,1.352,0.25
	c0.703,0.107,1.405,0.243,2.113,0.288C82.828,87.762,83.51,87.755,84.173,87.672z"/>
<path style="fill:#00FF7F;" d="M74.092,116.174c0.685,0.706,1.345,1.468,2.14,2.032c2.622,1.859,5.587,2.085,8.628,1.487
	c3.172-0.624,5.542-2.392,7.002-5.317c0.663-1.329,1.085-3.487,0.255-5.005c-0.023,0.459-0.042,0.849-0.062,1.247
	c-0.168-0.056-0.303-0.101-0.494-0.166c-0.047,0.159-0.089,0.299-0.13,0.44c-1.444,4.972-5.973,7.872-11.101,7.093
	c-1.538-0.234-2.96-0.821-4.346-1.508c-0.622-0.309-1.261-0.584-1.893-0.873C74.076,115.809,73.997,116.076,74.092,116.174z"/>
<path style="fill:#00FF7F;" d="M80.263,113.83c2.213-1.027,4.015-2.522,4.939-4.865c0.75-1.9,0.99-3.824,0.098-5.894
	c-0.545,1.143-0.449,2.369-1.272,3.547c-0.01-2.121-0.135-3.999-0.479-5.878c-0.552,1.155-0.998,2.323-1.451,3.489
	c-0.529,1.361-0.99,2.756-1.614,4.073c-1.113,2.351-2.736,4.227-5.24,5.224c-1.464,0.583-2.943,0.836-4.535,0.444
	c-0.177,0.671-0.291,1.294-0.51,1.877c-0.236,0.63-0.019,1.049,0.432,1.461c0.731,0.669,1.583,1.114,2.689,1.61
	c-0.716-1.132-1.308-2.068-1.937-3.062c0.985-0.396,1.855-0.287,2.711-0.296c0,0.004-0.001,0.008-0.001,0.011
	c0.163-0.067,0.324-0.165,0.49-0.176C76.586,115.264,78.465,114.664,80.263,113.83z"/>
<path style="fill:#00FF7F;" d="M95.641,59.661c0.915,3.708,3.669,5.491,7.078,6.538c-0.594-0.729-1.27-1.376-1.899-2.066
	c-0.742-0.814-1.518-1.614-2.145-2.513c-0.88-1.261-1.32-2.713-1.478-4.247c0.748,1.249,1.449,2.512,2.625,3.426
	c-0.14-0.354-0.385-0.645-0.55-0.976c-0.421-0.84-0.963-1.661-1.169-2.556c-0.323-1.411-0.422-2.874-0.59-4.318
	c-0.048-0.415-0.007-0.839-0.007-1.527C95.31,53.952,94.911,56.703,95.641,59.661z"/>
<path style="fill:#00FF7F;" d="M83.037,91.155c-0.491,0.383-0.89,0.694-1.289,1.005c-1.022,0.796-2.036,1.602-3.069,2.384
	c-0.657,0.497-0.87,1.122-0.839,1.943c0.082,2.133-0.363,4.152-1.52,5.981c-0.076,0.12-0.129,0.254-0.229,0.454
	C81.017,100.791,83.387,97.17,83.037,91.155z"/>
<path style="fill:#00FF7F;" d="M83.945,75.449c1.319,0.229,2.679,0.379,3.924,0.831c0.647,0.235,1.115,0.226,1.653-0.024
	c0.458-0.213,0.892-0.479,1.47-0.794c-2.931-2.124-7.181-2.199-9.189-0.23C82.539,75.303,83.251,75.328,83.945,75.449z"/>
<path style="fill:#00FF7F;" d="M82.375,67.111c0.744,0.926,1.378,1.83,2.13,2.622c0.832,0.876,1.851,1.374,3.128,1.472
	c3.362,0.26,6.614,1.054,9.749,2.311c0.818,0.328,1.647,0.631,2.486,0.951c0.012-0.136,0.049-0.225,0.019-0.275
	c-0.201-0.34-0.415-0.671-0.625-1.006c-2.899-4.625-7.205-6.555-12.523-6.465C85.338,66.745,83.94,66.966,82.375,67.111z"/>
<path style="fill:#00FF7F;" d="M72.745,80.604c-1.295,0.898-2.728,1.597-4.099,2.387c-0.163,0.094-0.323,0.191-0.576,0.342
	c2.041,1.128,4.067,1.968,6.278,2.221c1.701,0.195,3.28-0.182,4.605-1.431c-1.051-0.425-2.065-0.694-3.158-0.692
	c-0.41,0-0.841-0.18-1.224-0.358c-0.351-0.164-0.391-0.517-0.137-0.795c0.559-0.61,1.149-1.199,2.109-1.071
	c0.126,0.271,0.237,0.509,0.279,0.601c1.334,0.134,2.55,0.223,3.755,0.386c1.103,0.149,2.145,0.037,3.292-0.384
	c-0.941-0.948-1.875-1.579-3.089-2.008c0.215-0.145,0.301-0.228,0.404-0.27c1.316-0.537,2.626-0.331,3.759,0.368
	c1.58,0.975,3.121,0.929,4.749,0.276c0.256-0.103,0.528-0.168,0.797-0.231c1.805-0.424,3.594-0.96,5.422-1.228
	c1.594-0.234,3.234-0.155,4.852-0.234c0.408-0.02,0.877,0.148,1.308-0.395c-0.588-0.236-1.104-0.52-1.655-0.651
	c-2.143-0.51-4.324-0.594-6.475-0.151c-1.581,0.325-3.119,0.863-4.67,1.325c-0.833,0.248-1.598,0.215-2.402-0.192
	c-1.965-0.994-4.029-1.275-6.221-0.852C77.825,78.112,75.146,78.94,72.745,80.604z"/>
<path style="fill:#00FF7F;" d="M108.685,52.458c0.085,0.045,0.215,0.006,0.327,0.006c0.08-0.347,0.151-0.656,0.228-0.991
	c0.985,0.768,1.911,1.442,2.78,2.182c0.868,0.739,1.328,1.781,1.79,2.711c0.461-0.931,0.922-1.972,1.789-2.711
	c0.869-0.741,1.795-1.414,2.78-2.182c0.077,0.334,0.148,0.643,0.228,0.991c0.113,0,0.242,0.039,0.327-0.006
	c0.878-0.463,1.303-1.21,1.388-2.19c0.105-1.213-0.166-2.361-0.599-3.469c-0.372-0.954-0.755-1.919-1.269-2.8
	c-1.472-2.528-3.011-5.018-4.645-7.72c-1.633,2.702-3.173,5.192-4.645,7.72c-0.514,0.881-0.896,1.846-1.269,2.8
	c-0.433,1.108-0.704,2.256-0.599,3.469C107.382,51.248,107.807,51.995,108.685,52.458z M111.13,46.892
	c0.051-0.443,0.317-0.789,0.912-1.014c0.582,1.381,1.152,2.735,1.722,4.089c0.015-0.002,0.029-0.003,0.044-0.005
	c0.015,0.002,0.029,0.003,0.044,0.005c0.571-1.354,1.141-2.709,1.722-4.089c0.596,0.225,0.861,0.57,0.912,1.014
	c0.059,0.504,0.096,1.038-0.005,1.529c-0.384,1.874-1.446,3.38-2.674,4.96c-1.228-1.58-2.289-3.086-2.674-4.96
	C111.035,47.93,111.072,47.396,111.13,46.892z"/>
<path style="fill:#00FF7F;" d="M113.127,179.59c0.286,0.233,0.49,0.366,0.682,0.401c0.191-0.035,0.395-0.168,0.682-0.401
	c1.291-1.051,2.457-2.215,3.156-3.775c0.299-0.668,0.324-1.241-0.132-1.873c-0.69-0.958-1.37-1.937-1.922-2.978
	c-0.645-1.216-1.181-2.494-1.783-3.825c-0.603,1.33-1.138,2.609-1.784,3.825c-0.552,1.041-1.232,2.02-1.922,2.978
	c-0.456,0.633-0.431,1.205-0.132,1.873C110.67,177.375,111.836,178.539,113.127,179.59z"/>
<path style="fill:#00FF7F;" d="M106.733,174.559c1.369-2.216,2.669-4.34,3.989-6.451c1.898-3.034,2.852-6.279,2.276-9.899
	c-0.895,1.212-1.834,2.378-2.657,3.621c-1.271,1.92-2.351,3.938-2.572,6.298c-0.014,0.154-0.07,0.309-0.133,0.453
	c-0.045,0.102-0.134,0.186-0.204,0.279c-0.435-1.986-0.435-3.898,0.201-5.789c0.078-0.23,0.047-0.574-0.076-0.78
	c-0.502-0.849-0.217-1.51,0.409-2.119c0.596-0.579,1.194-1.156,1.797-1.728c1.512-1.437,2.42-3.217,2.875-5.225
	c0.221-0.975,0.448-1.971,0.253-3.075c-0.328,0.215-0.595,0.378-0.849,0.558c-2.521,1.787-4.49,4.078-6.203,6.633
	c-2.118,3.161-2.78,6.585-2.089,10.292C104.217,170.127,105.267,172.382,106.733,174.559z"/>
<path style="fill:#00FF7F;" d="M106.049,148.556c-0.252-1.731-1.154-3.078-2.356-4.281c-1.828-1.83-4.15-2.941-6.356-4.321
	c0.146,0.374,0.291,0.749,0.514,1.321c-0.715-0.592-1.26-1.044-1.805-1.497c0.377,0.892,0.869,1.692,1.459,2.411
	c0.576,0.701,1.254,1.318,1.887,1.972c-1.028-0.349-1.625-1.278-2.815-1.719c0.281,0.325,0.416,0.469,0.535,0.625
	c0.041,0.054,0.051,0.138,0.059,0.21c0.148,1.325,0.145,1.327,0.646,1.929c0.304,0.364,0.619,0.718,0.924,1.082
	c1.483,1.775,2.695,3.671,3.225,5.987c0.47,2.052-0.299,3.727-1.257,5.412c-0.093-0.44-0.08-0.871-0.096-1.3
	c-0.107-3.086-0.954-5.924-2.899-8.367c-0.565-0.709-1.226-1.342-1.844-2.008c-1.565-1.686-3.068-3.407-3.846-5.64
	c-0.22-0.631-0.339-1.356-1.047-1.748c-0.163-0.09-0.182-0.5-0.203-0.767c-0.021-0.256,0.04-0.52,0.082-0.952
	c-0.589,0.493-0.744,1.038-0.823,1.551c-0.364,2.36,0.007,4.593,1.466,6.53c0.874,1.16,1.889,2.213,2.823,3.329
	c0.811,0.969,1.665,1.913,2.38,2.95c1.214,1.762,1.865,3.722,1.886,5.898c0.019,1.907-0.382,3.678-1.414,5.304
	c0.071,0.063,0.142,0.127,0.212,0.19c0.745-0.573,1.537-1.093,2.226-1.728c2.42-2.231,4.139-4.978,5.567-7.904
	C105.857,151.637,106.281,150.155,106.049,148.556z"/>
<path style="fill:#00FF7F;" d="M99.513,50.332c-0.27,1.448-0.356,2.914-0.006,4.357c0.407,1.673,0.897,3.321,2.802,4.089
	c-0.296-1.183-0.747-2.306-0.818-3.453c-0.07-1.138,0.244-2.299,0.403-3.56c0.238,0.303,0.384,0.488,0.52,0.66
	c0.159-2.399,0.315-4.751,0.477-7.196C101.1,46.524,99.915,48.17,99.513,50.332z"/>
<path style="fill:#00FF7F;" d="M85.951,152.094c1.771,0.051,3.227-1.411,3.302-3.314c0.068-1.73-1.459-3.252-3.314-3.306
	c-1.861-0.054-3.328,1.326-3.389,3.186C82.487,150.625,83.883,152.035,85.951,152.094z M85.96,147.52
	c0.742,0.031,1.482,0.722,1.511,1.411c0.03,0.686-0.723,1.407-1.464,1.4c-0.747-0.007-1.456-0.608-1.476-1.253
	C84.505,148.244,85.197,147.488,85.96,147.52z"/>
<path style="fill:#00FF7F;" d="M71.059,62.373c0.463,1.4,1.077,2.598,1.894,3.668c0.828,1.086,1.628,2.23,2.949,2.811
	c0.779,1.178,2.088,1.542,3.262,2.098c1.255,0.594,2.618,0.701,4.285,0.857c-1.713-1.297-2.35-2.949-2.858-4.683
	c-0.75,0-1.422,0.034-2.089-0.012c-0.466-0.032-0.952-0.105-1.382-0.277c-0.919-0.368-1.426-1.297-1.276-2.279
	c0.815,0.209,1.624,0.417,2.452,0.63c-0.143-0.759-0.263-1.394-0.388-2.058c0.873-0.137,1.346,0.271,1.798,0.723
	c1.659,1.655,3.657,1.486,5.759,1.187c-0.597-1.429-1.598-2.557-1.587-4.124c0.523,0.176,0.983,0.39,1.351,0.71
	c0.536,0.465,1.015,0.998,1.5,1.518c0.889,0.955,1.929,1.596,3.245,1.815c1.165,0.194,2.313,0.498,3.468,0.753
	c0.238,0.052,0.476,0.103,0.714,0.154c-0.53-1.013-1.135-1.892-1.862-2.656c-2.076-2.18-4.573-3.462-7.66-3.451
	c-2.251,0.007-4.384,0.581-6.487,1.279C75.885,61.789,73.594,62.345,71.059,62.373z"/>
<path style="fill:#00FF7F;" d="M108.058,67.806c1.065,0.248,1.989,0.742,2.798,1.467c0.335,0.301,0.671,0.601,1.082,0.968
	c0.084-0.435,0.136-0.706,0.203-1.047c0.192,0.343,0.333,0.594,0.474,0.845c-0.155-2.906-1.27-5.284-3.767-6.861
	c-1.586-1.002-3.354-1.728-4.631-3.186c-0.102,0.137-0.185,0.197-0.18,0.249c0.043,0.43,0.085,0.862,0.158,1.288
	c0.392,2.281,1.321,4.289,3.061,5.862C107.473,67.588,107.772,67.74,108.058,67.806z"/>
<path style="fill:#00FF7F;" d="M105.156,51.793c0,1.31-0.103,2.541,0.026,3.746c0.169,1.591,0.75,3.063,1.851,4.278
	c0.345,0.381,0.697,0.78,1.365,0.536c-0.182-0.459-0.361-0.911-0.581-1.466c2.102,0.862,3.892,1.946,5.183,3.903
	c0.023-0.288,0.046-0.404,0.038-0.518c-0.027-0.355-0.051-0.711-0.102-1.062c-0.414-2.859-1.787-5.116-4.243-6.67
	c-0.632-0.4-1.364-0.655-1.952-1.105C106.173,53,105.73,52.4,105.156,51.793z"/>
<path style="fill:#00FF7F;" d="M123.868,167.625c0.692-3.707,0.03-7.132-2.089-10.292c-1.713-2.555-3.682-4.846-6.203-6.633
	c-0.255-0.18-0.521-0.343-0.849-0.558c-0.196,1.104,0.031,2.099,0.253,3.075c0.456,2.008,1.363,3.788,2.876,5.225
	c0.602,0.572,1.201,1.149,1.797,1.728c0.627,0.609,0.911,1.27,0.409,2.119c-0.123,0.207-0.153,0.55-0.076,0.78
	c0.636,1.891,0.637,3.803,0.201,5.789c-0.07-0.093-0.159-0.176-0.204-0.279c-0.062-0.143-0.118-0.299-0.133-0.453
	c-0.221-2.36-1.301-4.377-2.572-6.298c-0.823-1.243-1.762-2.409-2.657-3.621c-0.576,3.62,0.379,6.866,2.275,9.899
	c1.32,2.111,2.621,4.235,3.99,6.451C122.352,172.382,123.401,170.127,123.868,167.625z"/>
<path style="fill:#00FF7F;" d="M130.231,162.657c0.071-0.063,0.141-0.126,0.212-0.19c-1.032-1.626-1.432-3.397-1.413-5.304
	c0.021-2.176,0.672-4.136,1.886-5.898c0.715-1.038,1.568-1.981,2.38-2.95c0.934-1.116,1.949-2.169,2.823-3.329
	c1.459-1.937,1.83-4.17,1.466-6.53c-0.079-0.514-0.234-1.059-0.823-1.551c0.042,0.432,0.103,0.695,0.082,0.952
	c-0.022,0.268-0.041,0.677-0.203,0.767c-0.708,0.393-0.827,1.117-1.047,1.748c-0.778,2.233-2.281,3.953-3.846,5.64
	c-0.618,0.667-1.279,1.299-1.844,2.008c-1.945,2.443-2.792,5.281-2.899,8.367c-0.015,0.429-0.003,0.86-0.096,1.3
	c-0.958-1.685-1.726-3.36-1.256-5.412c0.531-2.316,1.742-4.212,3.225-5.987c0.305-0.364,0.62-0.718,0.924-1.082
	c0.502-0.602,0.499-0.604,0.646-1.929c0.008-0.072,0.018-0.156,0.059-0.21c0.118-0.156,0.254-0.3,0.535-0.625
	c-1.19,0.441-1.788,1.37-2.816,1.719c0.633-0.654,1.311-1.271,1.887-1.972c0.591-0.719,1.083-1.519,1.459-2.411
	c-0.546,0.452-1.091,0.904-1.805,1.497c0.222-0.573,0.368-0.947,0.514-1.321c-2.206,1.38-4.528,2.491-6.356,4.321
	c-1.202,1.203-2.104,2.551-2.356,4.281c-0.232,1.599,0.192,3.081,0.869,4.469c1.428,2.927,3.148,5.674,5.567,7.904
	C128.694,161.564,129.487,162.084,130.231,162.657z"/>
<path style="fill:#00FF7F;" d="M118.77,63.178c-2.497,1.577-3.611,3.955-3.767,6.861c0.141-0.251,0.282-0.502,0.474-0.845
	c0.066,0.341,0.119,0.612,0.203,1.047c0.41-0.367,0.746-0.667,1.082-0.968c0.809-0.725,1.733-1.218,2.798-1.467
	c0.286-0.067,0.585-0.218,0.803-0.415c1.74-1.573,2.669-3.581,3.06-5.862c0.074-0.426,0.116-0.858,0.158-1.288
	c0.005-0.052-0.078-0.113-0.18-0.249C122.124,61.451,120.357,62.177,118.77,63.178z"/>
<path style="fill:#00FF7F;" d="M120.877,53.434c-0.588,0.45-1.32,0.706-1.952,1.105c-2.456,1.554-3.829,3.811-4.243,6.67
	c-0.051,0.352-0.076,0.708-0.102,1.062c-0.009,0.114,0.015,0.231,0.038,0.518c1.292-1.957,3.081-3.041,5.183-3.903
	c-0.22,0.555-0.399,1.007-0.581,1.466c0.668,0.244,1.019-0.155,1.365-0.536c1.1-1.215,1.682-2.687,1.851-4.278
	c0.128-1.205,0.026-2.436,0.026-3.746C121.888,52.4,121.446,53,120.877,53.434z"/>
<path style="fill:#00FF7F;" d="M235.64,74.603c0-5.914-1.527-10.619-4.643-14.117c-3.116-3.561-7.884-5.342-14.371-5.342h-12.463
	v39.045h12.463c6.169,0,10.875-1.844,14.117-5.469S235.64,80.389,235.64,74.603z M216.626,87.384h-3.625V61.948h3.625
	c6.042,0,9.857,4.833,9.857,12.654C226.483,82.551,222.668,87.384,216.626,87.384z"/>
<path style="fill:#00FF7F;" d="M260.885,83.632l2.862,10.557h9.029l-12.399-39.045l-10.939,2.29l-11.636,36.755h8.967l2.861-10.557
	H260.885z M255.353,62.775l3.879,14.562h-7.886L255.353,62.775z"/>
<polygon style="fill:#00FF7F;" points="283.524,70.47 297.958,94.189 306.035,94.189 306.035,55.143 297.64,55.143 297.64,79.944 
	283.269,55.143 275.193,55.143 275.193,94.189 283.524,94.189 "/>
<path style="fill:#00FF7F;" d="M376.239,82.488c0-4.197-1.971-7.186-5.914-9.031c2.607-2.225,3.943-4.578,3.943-7.122
	c0-7.186-4.961-11.193-13.101-11.193h-14.689v39.045h13.99C370.961,94.189,376.239,89.419,376.239,82.488z M355.318,61.948h4.706
	c3.624,0,5.405,1.717,5.405,5.087c0,1.781-0.827,3.371-2.417,4.834h-7.693V61.948z M355.318,78.101h5.278
	c4.324,0,6.486,1.462,6.486,4.451c0,3.244-2.162,4.833-6.421,4.833h-5.342V78.101z"/>
<path style="fill:#00FF7F;" d="M391.054,83.632h11.255l2.862,10.557h9.03l-12.399-39.045l-10.939,2.29l-11.636,36.755h8.965
	L391.054,83.632z M396.777,62.775l3.879,14.562h-7.886L396.777,62.775z"/>
<path style="fill:#00FF7F;" d="M425.266,80.389h4.451l8.776,13.799h9.221v-0.954l-10.048-15.007
	c4.833-3.053,7.632-6.105,7.632-10.875c0-7.375-4.834-12.209-14.691-12.209h-14.18v39.045h8.84V80.389z M425.266,61.948h4.833
	c4.006,0,6.041,2.289,6.041,5.851c0,2.734-1.272,4.133-4.006,5.914h-6.868V61.948z"/>
<polygon style="fill:#00FF7F;" points="462.974,94.189 471.814,94.189 471.814,61.884 483.007,61.884 483.578,55.143 
	451.211,55.143 451.211,61.948 462.974,61.948 "/>
<polygon style="fill:#00FF7F;" points="516.391,87.384 498.014,87.384 498.014,55.143 489.174,55.143 489.174,94.189 
	515.628,94.189 "/>
<polygon style="fill:#00FF7F;" points="533.687,78.036 548.313,78.036 548.313,71.233 533.687,71.233 533.687,61.948 
	550.094,61.948 550.92,55.143 524.848,55.143 524.848,94.189 550.539,94.189 551.429,87.384 533.687,87.384 "/>
<polygon style="fill:#00FF7F;" points="581.381,55.143 573.622,73.776 565.609,55.143 556.326,55.143 569.107,80.262 
	569.107,94.189 578.01,94.189 578.01,80.262 590.664,55.143 "/>
<path style="fill:#00FF7F;" d="M146.42,196.082l-0.028-0.07c0.477-0.174,0.826-0.615,0.546-1.378
	c-0.282-0.758-0.781-0.922-1.361-0.706l-0.216,0.08l1.708,4.619l0.35-0.129c0.674-0.245,1.02-0.793,0.7-1.649
	C147.796,195.963,147.092,195.831,146.42,196.082z"/>
<polygon style="fill:#00FF7F;" points="140.48,199.142 142.025,198.677 140.701,197.01 "/>
<polygon style="fill:#00FF7F;" points="88.913,198.671 90.468,199.102 90.238,196.985 "/>
<path style="fill:#00FF7F;" d="M69.327,186.829c-0.995-0.548-2.098-0.022-2.87,1.379c-0.772,1.401-0.629,2.614,0.365,3.163
	c0.995,0.548,2.098,0.022,2.87-1.379C70.465,188.591,70.322,187.377,69.327,186.829z"/>
<path style="fill:#00FF7F;" d="M168.248,190.066c-0.325-0.448-0.602-0.931-0.879-1.41c-1.686-2.902-2.748-6.039-3.535-9.282
	c-0.171-0.706-0.383-1.403-0.633-2.084c-0.273-0.747-0.802-1.158-1.651-1.17c0.829,0.421,1.18,1.568,0.683,2.321
	c-0.47,0.71-1.041,1.409-1.713,1.917c-1.437,1.08-2.906,2.144-4.47,3.025c-7.309,4.119-15.044,7.18-23.209,9.145
	c-4.38,1.053-8.816,1.786-13.306,2.119c-2.863,0.212-5.733,0.408-8.61,0.085c-3.025-0.339-6.077-0.477-9.081-0.935
	c-4.793-0.729-9.497-1.888-14.112-3.383c-4.255-1.38-8.371-3.108-12.395-5.057c-2.875-1.393-5.61-3.016-8.146-4.971
	c-0.751-0.579-1.413-1.232-1.805-2.107c-0.317-0.71-0.056-1.703,0.751-2.219c-0.839,0.05-1.307,0.443-1.701,1.432
	c-0.254,0.639-0.431,1.313-0.614,1.98c-0.731,2.637-1.495,5.265-2.796,7.694c-0.539,1.008-1.08,2.017-1.699,2.975
	c-0.547,0.845-0.529,1.64,0.037,2.4c0.45,0.606,0.947,1.214,1.539,1.672c1.064,0.824,2.173,1.609,3.337,2.288
	c7.736,4.511,15.985,7.777,24.639,10.04c5.131,1.341,10.35,2.178,15.623,2.723c3.345,0.345,6.697,0.556,10.053,0.518
	c3.701-0.044,7.399-0.287,11.081-0.729c3.335-0.4,6.649-0.901,9.928-1.622c8.641-1.896,16.825-5.057,24.66-9.13
	c1.869-0.972,3.659-2.105,5.45-3.222c0.97-0.606,1.821-1.374,2.483-2.334C168.768,191.86,168.918,190.994,168.248,190.066z
	 M66.659,191.667c-1.694-0.934-2.233-2.513-1.359-4.098c0.874-1.585,2.498-1.971,4.191-1.037c1.694,0.934,2.233,2.513,1.359,4.098
	C69.976,192.215,68.353,192.602,66.659,191.667z M77.004,196.586l-2.199-1.008l0.031-0.069l0.115,0.052
	c0.158,0.072,0.374-0.016,0.429-0.182l0.926-2.785l-2.459,1.743c0,0-0.48,0.328-0.653,0.68l-0.069-0.032l-0.434-4.026l-1.496,2.502
	c-0.089,0.15-0.015,0.371,0.142,0.444l0.114,0.052l-0.032,0.069l-1.532-0.702l0.034-0.073l0.116,0.053
	c0.263,0.12,0.575,0.059,0.746-0.213l2.759-4.417l0.068,0.031l0.559,4.776l3.889-2.734l0.067,0.03l-1.526,4.979
	c-0.086,0.311,0.062,0.583,0.323,0.703l0.116,0.053L77.004,196.586z M82.906,198.917l-0.068-0.026l-2.445-5.062l-1.126,2.992
	c-0.089,0.255,0.041,0.535,0.295,0.63l0.139,0.053l-0.027,0.076l-2.286-0.86l0.029-0.075l0.14,0.052
	c0.254,0.096,0.538-0.03,0.637-0.282l1.474-3.917c0.211-0.561,0.267-0.975,0.267-0.975l0.075,0.028l2.439,5.058l1.121-2.981
	c0.091-0.255-0.039-0.537-0.293-0.632l-0.139-0.053l0.027-0.076l2.286,0.86l-0.029,0.075l-0.139-0.052
	c-0.252-0.095-0.533,0.028-0.635,0.276l-1.466,3.896C82.967,198.49,82.906,198.917,82.906,198.917z M86.388,199.918l-2.328-0.753
	l0.026-0.076l0.097,0.031c0.269,0.087,0.556-0.057,0.647-0.323l1.375-4.251c0.079-0.268-0.069-0.551-0.336-0.637l-0.097-0.031
	l0.024-0.077l2.328,0.753l-0.026,0.076l-0.097-0.031c-0.267-0.086-0.552,0.056-0.645,0.318l-1.376,4.252
	c-0.081,0.269,0.067,0.554,0.335,0.641l0.097,0.031L86.388,199.918z M92.573,201.679l-2.474-0.686l0.021-0.077l0.068,0.019
	c0.201,0.056,0.467-0.061,0.435-0.404l-0.116-1.065l-1.822-0.505l-0.663,0.849c-0.214,0.275-0.039,0.514,0.162,0.57l0.068,0.019
	l-0.021,0.077l-1.665-0.462l0.022-0.078l0.07,0.02c0.22,0.061,0.524,0.006,0.774-0.256l2.921-3.561
	c0.088-0.103,0.582-0.691,0.664-0.911l0.07,0.02l0.904,5.703c0.08,0.364,0.309,0.571,0.538,0.634l0.064,0.018L92.573,201.679z
	 M98.824,197.563l-0.912,4.638c-0.045,0.274,0.135,0.536,0.409,0.59l0.1,0.02l-0.014,0.079l-2.402-0.473l0.017-0.079l0.1,0.02
	c0.272,0.053,0.536-0.118,0.601-0.385l0.914-4.644l-1.063-0.209c-0.487-0.083-0.856,0.169-0.949,0.651l-0.019,0.093l-0.08-0.015
	l0.271-1.377c0.134,0.09,0.569,0.257,0.908,0.328l3.18,0.625c0.34,0.063,0.807,0.074,0.964,0.041l-0.271,1.378l-0.079-0.017
	l0.018-0.093c0.096-0.482-0.15-0.855-0.632-0.962L98.824,197.563z M104.248,198.449l-1.342-0.19l-0.328,2.321l1.057,0.15
	c0.393,0.048,0.719-0.199,0.773-0.588l0.01-0.069l0.078,0.01l-0.26,1.844l-0.078-0.012l0.009-0.069
	c0.055-0.385-0.186-0.711-0.57-0.777l-1.068-0.151l-0.317,2.245l1.047,0.148c0.797,0.112,1.385-0.31,1.744-1.066l0.079,0.012
	l-0.598,1.576l-4.131-0.584l0.012-0.08l0.101,0.014c0.279,0.039,0.538-0.152,0.582-0.429l0.628-4.448
	c0.02-0.269-0.172-0.51-0.442-0.548l-0.101-0.014l0.009-0.08l3.059,0.432c0.344,0.045,0.816,0.031,0.973-0.011l-0.197,1.395
	l-0.08-0.013l0.013-0.094C104.982,198.893,104.724,198.536,104.248,198.449z M113.032,204.538l-2.413-0.173l0.005-0.076l0.125,0.009
	c0.173,0.012,0.344-0.145,0.338-0.32l-0.109-2.933l-1.691,2.494c0,0-0.335,0.476-0.374,0.865l-0.076-0.005l-1.817-3.618
	l-0.524,2.867c-0.032,0.172,0.115,0.353,0.288,0.366l0.125,0.009l-0.006,0.076l-1.681-0.121l0.006-0.08l0.127,0.009
	c0.289,0.021,0.559-0.147,0.624-0.461l1.036-5.103l0.074,0.006l2.198,4.276l2.684-3.923l0.073,0.005l0.316,5.198
	c0.028,0.321,0.262,0.525,0.549,0.545l0.128,0.009L113.032,204.538z M115.676,201.818l0-0.076c-0.005-0.005,0.97,0.098,1.25-0.918
	c0.038-0.142,0.057-0.331,0.05-0.484c-0.022-0.687-0.392-1.135-1.036-1.135l-0.537,0l-0.003,4.711
	c0.005,0.281,0.234,0.507,0.516,0.507h0.102l0.001,0.081l-2.447-0.001l0.001-0.081h0.102c0.282,0,0.51-0.225,0.516-0.506
	l0.003-4.506c0-0.272-0.245-0.464-0.514-0.464h-0.101l-0.001-0.08l2.685,0.002c1.378,0.001,1.975,0.665,2.002,1.544
	C118.313,201.799,116.825,202.573,115.676,201.818z M124.568,198.555c-0.226,0.015-0.4,0.186-0.399,0.408l0.21,3.129
	c0.088,1.321-0.723,2.207-2.169,2.305c-1.721,0.116-2.675-0.648-2.762-1.959l-0.21-3.125c-0.02-0.231-0.22-0.385-0.452-0.369
	l-0.131,0.009l-0.006-0.08l2.315-0.155l0.006,0.08l-0.131,0.009c-0.228,0.015-0.403,0.189-0.398,0.414l0.206,3.068
	c0.077,1.144,0.723,1.814,1.685,1.749c0.982-0.066,1.549-0.778,1.479-1.857l-0.213-3.17c-0.025-0.225-0.222-0.374-0.45-0.358
	l-0.131,0.009l-0.006-0.08l1.682-0.113l0.005,0.08L124.568,198.555z M127.699,203.852c-0.715,0.094-1.411-0.002-1.742-0.263
	c-0.176-0.316-0.152-1.005,0.011-1.38l0.07-0.009c0.046,0.841,0.748,1.447,1.704,1.305c0.693-0.104,1.051-0.543,0.985-1.043
	c-0.043-0.324-0.28-0.512-0.748-0.74l-1.512-0.74c-0.597-0.292-0.934-0.742-0.953-1.332c-0.042-0.835,0.489-1.487,1.496-1.619
	c0.257-0.034,0.727-0.06,1.098-0.062l0.502-0.066l0.05,1.187l-0.077,0.01c-0.074-0.554-0.571-0.86-1.247-0.771
	c-0.628,0.083-0.981,0.474-0.944,0.906c0.022,0.317,0.291,0.496,0.654,0.669l1.653,0.788c0.515,0.246,0.847,0.628,0.891,1.229
	C129.679,202.968,128.976,203.684,127.699,203.852z M136.527,202.144l-0.016-0.079l0.099-0.022c0.273-0.061,0.446-0.328,0.394-0.601
	l-0.45-2.007l-2.549,0.572l0.449,2.001c0.067,0.273,0.34,0.443,0.615,0.381l0.099-0.022l0.019,0.079l-2.388,0.535l-0.016-0.079
	l0.099-0.022c0.275-0.062,0.449-0.332,0.393-0.607l-0.978-4.357c-0.068-0.271-0.34-0.443-0.614-0.381l-0.1,0.022l-0.019-0.078
	l2.388-0.536l0.016,0.079l-0.099,0.022c-0.273,0.061-0.446,0.334-0.393,0.607l0.454,2.026l2.549-0.572l-0.454-2.025
	c-0.071-0.267-0.342-0.443-0.614-0.381l-0.099,0.022l-0.019-0.078l2.388-0.536l0.016,0.079l-0.1,0.022
	c-0.274,0.062-0.449,0.332-0.392,0.607l0.978,4.358c0.066,0.273,0.339,0.443,0.614,0.381l0.099-0.022l0.019,0.078L136.527,202.144z
	 M142.721,200.472l-0.023-0.076l0.068-0.02c0.199-0.06,0.363-0.301,0.152-0.574l-0.666-0.839l-1.81,0.544l-0.108,1.071
	c-0.033,0.347,0.241,0.455,0.441,0.395l0.067-0.02l0.023,0.076l-1.654,0.497l-0.023-0.077l0.07-0.021
	c0.219-0.066,0.446-0.274,0.518-0.63l0.571-4.567c0.019-0.134,0.124-0.894,0.075-1.124l0.07-0.021l3.805,4.338
	c0.262,0.265,0.565,0.318,0.792,0.249l0.065-0.019l0.023,0.077L142.721,200.472z M147.874,198.721l-2.392,0.885l-0.026-0.076
	l0.096-0.035c0.263-0.097,0.399-0.386,0.31-0.649l-1.553-4.2c-0.105-0.257-0.395-0.387-0.657-0.29l-0.096,0.036l-0.029-0.075
	l2.187-0.809c1.098-0.406,2.054-0.341,2.398,0.584c0.255,0.693-0.063,1.228-0.516,1.461c0.79-0.213,1.564,0.102,1.86,0.907
	C149.817,197.431,149.152,198.248,147.874,198.721z M150.719,197.637l-0.031-0.074l0.094-0.041c0.258-0.113,0.378-0.411,0.271-0.671
	l-1.793-4.117c-0.124-0.239-0.414-0.344-0.664-0.235l-0.094,0.041l-0.033-0.073l2.831-1.233c0.317-0.142,0.711-0.401,0.823-0.518
	l0.563,1.291l-0.075,0.031l-0.038-0.087c-0.193-0.445-0.598-0.613-1.05-0.439l-1.243,0.541l0.936,2.149l0.979-0.426
	c0.36-0.165,0.508-0.547,0.351-0.906l-0.028-0.064l0.072-0.032l0.743,1.707l-0.073,0.03l-0.027-0.064
	c-0.155-0.357-0.53-0.508-0.893-0.364l-0.988,0.431l0.905,2.078l0.97-0.422c0.737-0.321,1.017-0.988,0.926-1.821l0.074-0.032
	l0.316,1.655L150.719,197.637z M160.731,193.012l-5.387-1.598l1.455,2.846c0.128,0.237,0.423,0.33,0.663,0.206l0.133-0.068
	l0.038,0.071l-2.174,1.111l-0.036-0.072l0.132-0.068c0.242-0.124,0.339-0.418,0.221-0.661l-1.904-3.726
	c-0.273-0.533-0.542-0.853-0.542-0.853l0.071-0.036l5.381,1.6l-1.449-2.835c-0.128-0.239-0.423-0.332-0.665-0.208l-0.132,0.068
	l-0.038-0.071l2.174-1.112l0.036,0.072l-0.133,0.068c-0.239,0.122-0.337,0.413-0.223,0.655l1.894,3.705
	c0.276,0.54,0.551,0.873,0.551,0.873L160.731,193.012z M162.893,191.642l-0.04-0.07l0.088-0.052
	c0.239-0.141,0.323-0.445,0.193-0.687l-2.409-4.076l-0.933,0.551c-0.419,0.262-0.526,0.696-0.275,1.118l0.048,0.081l-0.069,0.043
	l-0.715-1.209c0.16-0.022,0.596-0.187,0.896-0.36l2.791-1.649c0.296-0.18,0.651-0.482,0.748-0.612l0.714,1.209l-0.07,0.04
	l-0.048-0.082c-0.25-0.423-0.68-0.539-1.112-0.298l-0.932,0.55l2.405,4.07c0.149,0.235,0.458,0.311,0.699,0.168l0.088-0.052
	l0.042,0.069L162.893,191.642z"/>
<path style="fill:#00FF7F;" d="M75.361,179.316c-0.568-0.144-1.153-0.266-1.686-0.502c-1.295-0.577-2.565-1.212-3.845-1.828
	c-0.941-0.452-1.909-0.791-2.96-0.901c-0.173-0.017-0.331-0.027-0.481-0.029c0.152,1.745,1.187,3.293,2.409,4.084
	c2.061,1.337,4.191,2.567,6.299,3.828c0.345,0.208,0.733,0.348,1.222,0.575c0.679-1.984,1.212-3.899,1.855-5.777
	c-0.111-0.04-0.035-0.025-0.056-0.017c-0.094,0.042-0.185,0.087-0.273,0.141C77.074,179.376,76.245,179.536,75.361,179.316z"/>
<path style="fill:#00FF7F;" d="M154.229,178.81c-0.958,0.441-1.986,0.647-3.037,0.491c-0.547-0.081-1.074-0.31-1.671-0.493
	c0.654,1.924,1.284,3.778,1.934,5.689c2.993-1.409,5.758-2.981,8.275-4.956c0.822-0.647,1.549-1.393,1.73-2.504
	c0.018-0.123,0.025-0.801,0.091-0.916c-1.024-0.014-2.001,0.125-2.927,0.573C157.16,177.4,155.705,178.129,154.229,178.81z"/>
<path style="fill:#00FF7F;" d="M35.875,174.254c0.755,0.799,1.52,1.551,2.346,2.228c3.945,3.233,8.5,5.149,13.471,6.125
	c1.424,0.28,2.882,0.4,4.296,0.717c1.579,0.355,3.127,0.851,4.826,1.324c0.15-0.335,0.337-0.668,0.452-1.025
	c0.438-1.349,0.854-2.706,1.276-4.06c0.288-0.924,0.508-1.875,0.874-2.766c0.523-1.271,1.527-1.968,2.925-1.918
	c0.752,0.027,1.54,0.092,2.237,0.345c1.232,0.446,2.408,1.046,3.607,1.584c0.788,0.354,1.561,0.748,2.366,1.061
	c1.079,0.419,2.169,0.404,3.215-0.141c0.678-0.353,0.822-0.714,0.351-1.322c-0.524-0.676-1.135-1.314-1.808-1.839
	c-1.319-1.028-2.829-1.735-4.391-2.324c-2.774-1.046-5.679-1.481-8.594-1.895c-2.121-0.301-4.251-0.595-6.341-1.055
	c-4.14-0.91-7.931-2.643-11.38-5.12c-1.352-0.971-2.55-2.09-3.565-3.564c-0.015,0.251-0.042,0.356-0.025,0.453
	c0.413,2.416,1.26,4.666,2.525,6.768c1.243,2.064,2.747,3.906,4.506,5.548c0.232,0.216,0.597,0.376,0.54,0.863
	C45.022,175.085,40.472,175.671,35.875,174.254z"/>
<path style="fill:#00FF7F;" d="M161.742,170.766c-3.272,0.53-6.407,1.46-9.263,3.194c-1.012,0.614-1.961,1.317-2.649,2.299
	c-0.577,0.826-0.406,1.304,0.539,1.658c0.129,0.048,0.267,0.069,0.4,0.105c1.207,0.332,2.337,0.028,3.421-0.469
	c1.037-0.476,2.024-1.064,3.07-1.519c0.947-0.412,1.921-0.804,2.922-1.041c2.185-0.518,3.628,0.333,4.356,2.451
	c0.146,0.425,0.254,0.862,0.377,1.294c0.418,1.463,0.817,2.931,1.261,4.386c0.167,0.547,0.435,1.063,0.658,1.596
	c0.247-0.059,0.388-0.071,0.512-0.124c2.279-0.984,4.706-1.387,7.132-1.76c5.521-0.848,10.507-2.92,14.899-6.386
	c0.407-0.321,0.785-0.681,1.153-1.047c0.368-0.366,0.706-0.762,1.057-1.145c-2.04,0.658-4.08,0.898-6.116,0.798
	c-2.378-0.117-4.743-0.476-7.114-0.739c-0.176-0.02-0.343-0.12-0.594-0.212c4.105-3.68,6.953-7.963,7.895-13.334
	c-1.145,1.077-2.196,2.243-3.42,3.183c-3.452,2.651-7.338,4.463-11.597,5.347C167.7,169.911,164.71,170.285,161.742,170.766z"/>
<g>
	<path style="fill:#00FF7F;" d="M51.683,82.309c0.005,9.975,0.014,19.949,0.041,29.924c0.014,5.262,0.594,10.468,1.685,15.616
		c2.625,12.392,8.574,23.063,16.97,32.448c4.578,5.117,9.934,9.356,15.458,13.393c8.229,6.014,16.82,11.49,25.426,16.942
		c0.837,0.53,1.695,1.027,2.547,1.537c0.852-0.511,1.71-1.008,2.547-1.537c8.606-5.452,17.197-10.928,25.426-16.942
		c5.524-4.037,10.88-8.276,15.458-13.393c8.396-9.385,14.345-20.056,16.97-32.448c1.09-5.148,1.671-10.354,1.685-15.616
		c0.027-9.974,0.036-19.949,0.041-29.924c0.009-15.265,0.008-30.529,0.01-45.794c0-0.716,0-1.433,0-2.217
		c-19.075,0-35.926,0-54.969,0c0.438,1.578,1.107,3.015,1.773,4.538c16.823,0,31.534,0,48.451,0
		c0.015,0.604,0.038,1.118,0.038,1.632c-0.003,13.488-0.009,26.976-0.013,40.464c-0.004,10.378,0,20.757-0.011,31.135
		c-0.007,5.956-0.638,11.84-2.135,17.618c-1.387,5.355-3.673,10.331-6.396,15.125c-4.322,7.609-9.966,14.088-16.746,19.617
		c-6.907,5.632-14.285,10.604-21.718,15.498c-3.174,2.09-6.434,4.051-9.623,6.12c-0.286,0.186-0.538,0.294-0.786,0.329
		c-0.248-0.035-0.5-0.143-0.786-0.329c-3.189-2.069-6.449-4.03-9.624-6.12c-7.433-4.894-14.811-9.866-21.717-15.498
		c-6.78-5.529-12.424-12.008-16.746-19.617c-2.723-4.793-5.008-9.769-6.396-15.125c-1.497-5.778-2.129-11.662-2.136-17.618
		c-0.011-10.379-0.008-20.757-0.011-31.135c-0.005-13.488-0.01-26.976-0.013-40.464c0-0.514,0.023-1.028,0.038-1.632
		c16.917,0,31.628,0,48.451,0c0.666-1.522,1.335-2.959,1.773-4.538c-19.043,0-35.894,0-54.969,0c0,0.784,0,1.5,0,2.217
		C51.675,51.779,51.674,67.044,51.683,82.309z"/>
</g>
<path style="fill:#FFFFFF;" d="M211.644,113.293c1.19,0,2.379,0.211,3.596,0.661l0.767-2.697c-1.56-0.529-3.015-0.793-4.389-0.793
	c-2.671,0-4.759,0.767-6.24,2.327c-1.454,1.56-2.195,3.622-2.195,6.186c0,5.367,3.014,8.354,8.486,8.354
	c1.534,0,2.909-0.317,4.125-0.951l0.106-2.934c-1.349,0.713-2.723,1.057-4.125,1.057c-2.988,0-4.786-2.01-4.786-5.579
	C206.991,115.354,208.55,113.293,211.644,113.293z"/>
<path style="fill:#FFFFFF;" d="M224.305,114.139c-2.061,0-3.648,0.609-4.784,1.824c-1.137,1.216-1.692,2.803-1.692,4.759
	c0,4.045,2.115,6.609,6.476,6.609c2.062,0,3.648-0.607,4.786-1.824c1.137-1.216,1.692-2.802,1.692-4.784
	C230.783,116.704,228.668,114.139,224.305,114.139z M226.395,123.63c-0.503,0.661-1.191,1.005-2.09,1.005
	c-0.898,0-1.612-0.344-2.115-1.005c-0.503-0.687-0.739-1.666-0.739-2.908c0-1.243,0.237-2.221,0.739-2.882
	c0.503-0.662,1.217-1.005,2.115-1.005c0.899,0,1.587,0.343,2.09,1.005c0.501,0.661,0.766,1.638,0.766,2.882
	C227.16,121.964,226.896,122.943,226.395,123.63z"/>
<path style="fill:#FFFFFF;" d="M242.518,114.139c-0.845,0-1.85,0.687-2.458,1.718c-0.424-1.136-1.323-1.718-2.697-1.718
	c-1.137,0-2.274,0.873-2.671,1.956l-0.449-1.638h-1.93v12.558h3.12v-7.455c-0.026-1.956,0.344-2.935,1.111-2.935
	c0.661,0,0.925,0.793,0.925,3.2v7.191h3.066v-7.561c0-1.772,0.556-2.829,1.111-2.829c0.713,0,0.925,0.741,0.925,3.2v7.191h3.12
	v-7.667C245.692,115.514,244.845,114.139,242.518,114.139z"/>
<path style="fill:#FFFFFF;" d="M254.043,114.139c-1.718,0-3.014,0.635-3.913,1.877l-0.317-1.559h-2.221v17.502h3.463v-5.525
	c0.793,0.607,1.798,0.898,2.988,0.898c1.772,0,3.172-0.581,4.203-1.771c1.031-1.19,1.56-2.803,1.56-4.812
	C259.807,116.704,257.56,114.139,254.043,114.139z M253.462,124.635c-1.72,0-2.723-1.375-2.723-3.887
	c0-2.539,1.004-3.913,2.723-3.913c1.718,0,2.723,1.296,2.723,3.913C256.186,123.34,255.287,124.635,253.462,124.635z"/>
<path style="fill:#FFFFFF;" d="M270.829,121.886c0,1.824-0.819,2.749-2.433,2.749c-1.612,0-2.431-0.925-2.431-2.749v-7.429h-3.464
	v7.534c0,3.358,2.274,5.34,5.895,5.34c3.622,0,5.897-1.983,5.897-5.34v-7.534h-3.464V121.886z"/>
<path style="fill:#FFFFFF;" d="M280.926,111.257l-0.45,3.2h-2.908l-0.687,2.537h3.516v5.631c0,3.173,2.009,4.706,5.155,4.706
	c1.031,0,1.984-0.132,2.855-0.369l0.106-2.645c-0.793,0.212-1.612,0.318-2.485,0.318c-1.454,0-2.168-0.793-2.168-2.353v-5.288h3.834
	l0.687-2.537h-4.521l0.45-3.94L280.926,111.257z"/>
<path style="fill:#FFFFFF;" d="M297.5,119.295c-3.595,0-5.473,1.454-5.473,3.965c0,2.407,1.85,4.071,4.68,4.071
	c1.64,0,2.961-0.581,3.966-1.744h0.105l0.529,1.428h2.222v-8.17c0-3.172-2.407-4.706-5.975-4.706c-1.64,0-3.252,0.264-4.839,0.767
	l0.688,2.511c1.454-0.397,2.776-0.581,3.965-0.581c1.93,0,2.697,0.607,2.697,2.195v0.475
	C299.298,119.373,298.453,119.295,297.5,119.295z M300.065,123.498c-0.767,0.767-1.666,1.137-2.723,1.137
	c-1.19,0-1.798-0.661-1.798-1.64c0-1.084,0.741-1.771,2.115-1.771c0.899,0,1.692,0.079,2.407,0.211V123.498z"/>
<path style="fill:#FFFFFF;" d="M309.792,122.625c0,3.173,2.009,4.706,5.155,4.706c1.031,0,1.984-0.132,2.855-0.369l0.106-2.645
	c-0.793,0.212-1.612,0.318-2.485,0.318c-1.454,0-2.168-0.793-2.168-2.353v-5.288h3.834l0.687-2.537h-4.521l0.45-3.94l-3.384,0.741
	l-0.45,3.2h-2.908l-0.687,2.537h3.516V122.625z"/>
<path style="fill:#FFFFFF;" d="M327.398,112.765c1.163,0,2.089-0.794,2.089-1.772c0-0.979-0.925-1.798-2.089-1.798
	c-1.137,0-2.062,0.819-2.062,1.798C325.336,111.97,326.261,112.765,327.398,112.765z"/>
<polygon style="fill:#FFFFFF;" points="332.925,124.503 329.144,124.503 329.144,114.457 321.899,114.457 321.899,116.968 
	325.68,116.968 325.68,124.503 321.899,124.503 321.899,127.014 332.925,127.014 "/>
<path style="fill:#FFFFFF;" d="M341.883,127.331c2.062,0,3.65-0.607,4.786-1.824c1.137-1.216,1.692-2.802,1.692-4.784
	c0-4.019-2.115-6.584-6.478-6.584c-2.061,0-3.648,0.609-4.784,1.824c-1.137,1.216-1.692,2.803-1.692,4.759
	C335.407,124.767,337.522,127.331,341.883,127.331z M339.769,117.841c0.503-0.662,1.217-1.005,2.115-1.005
	c0.899,0,1.587,0.343,2.09,1.005c0.501,0.661,0.766,1.638,0.766,2.882c0,1.242-0.264,2.221-0.766,2.908
	c-0.503,0.661-1.191,1.005-2.09,1.005c-0.898,0-1.612-0.344-2.115-1.005c-0.503-0.687-0.739-1.666-0.739-2.908
	C339.029,119.479,339.266,118.502,339.769,117.841z"/>
<path style="fill:#FFFFFF;" d="M362.451,127.014v-6.556c0-4.205-1.666-6.319-4.998-6.319c-1.612,0-3.226,0.793-4.045,1.824
	l-0.503-1.506h-2.195v12.558h3.464v-6.452c0-2.405,0.979-3.727,2.643-3.727c1.481,0,2.168,1.031,2.168,3.781v6.398H362.451z"/>
<path style="fill:#FFFFFF;" d="M389.967,111.627c0.687,0,1.402,0.106,2.168,0.343l0.687-2.511c-1.084-0.344-2.168-0.529-3.252-0.529
	c-3.41,0-5.552,1.666-5.552,4.389v1.137h-2.908l-0.661,2.511h3.569v7.535h-3.569v2.511h11.077v-2.511h-4.045v-7.535h3.358
	l0.687-2.511h-4.045v-0.899C387.482,112.262,388.302,111.627,389.967,111.627z"/>
<path style="fill:#FFFFFF;" d="M400.672,114.139c-2.061,0-3.648,0.609-4.784,1.824c-1.137,1.216-1.692,2.803-1.692,4.759
	c0,4.045,2.115,6.609,6.476,6.609c2.062,0,3.65-0.607,4.786-1.824c1.137-1.216,1.692-2.802,1.692-4.784
	C407.15,116.704,405.035,114.139,400.672,114.139z M402.762,123.63c-0.503,0.661-1.191,1.005-2.09,1.005
	c-0.898,0-1.612-0.344-2.115-1.005c-0.503-0.687-0.739-1.666-0.739-2.908c0-1.243,0.237-2.221,0.739-2.882
	c0.503-0.662,1.217-1.005,2.115-1.005c0.899,0,1.587,0.343,2.09,1.005c0.501,0.661,0.766,1.638,0.766,2.882
	C403.527,121.964,403.263,122.943,402.762,123.63z"/>
<path style="fill:#FFFFFF;" d="M412.541,124.503h-3.464v2.511h10.813v-2.511h-3.913v-3.676c0-2.247,1.19-3.991,3.438-3.991
	c0.529,0,1.057,0.079,1.586,0.211l0.635-2.564c-0.608-0.238-1.349-0.344-2.195-0.344c-1.824,0-3.173,0.715-4.045,2.168l-0.609-1.85
	h-2.247V124.503z"/>
<polygon style="fill:#FFFFFF;" points="207.625,137.406 203.951,137.406 203.951,153.639 214.948,153.639 215.266,150.81 
	207.625,150.81 "/>
<path style="fill:#FFFFFF;" d="M224.068,140.764c-1.64,0-3.252,0.264-4.839,0.767l0.688,2.511c1.454-0.397,2.776-0.581,3.965-0.581
	c1.93,0,2.697,0.607,2.697,2.195v0.475c-0.767-0.132-1.612-0.211-2.565-0.211c-3.595,0-5.473,1.454-5.473,3.965
	c0,2.407,1.85,4.071,4.68,4.071c1.64,0,2.961-0.581,3.966-1.744h0.105l0.529,1.428h2.222v-8.17
	C230.043,142.298,227.637,140.764,224.068,140.764z M226.579,150.123c-0.767,0.767-1.666,1.137-2.723,1.137
	c-1.19,0-1.798-0.661-1.798-1.64c0-1.084,0.741-1.771,2.115-1.771c0.899,0,1.692,0.079,2.407,0.211V150.123z"/>
<path style="fill:#FFFFFF;" d="M239.875,140.764c-1.612,0-3.226,0.793-4.045,1.824l-0.503-1.506h-2.195v12.558h3.464v-6.452
	c0-2.405,0.978-3.727,2.643-3.727c1.481,0,2.168,1.031,2.168,3.781v6.398h3.464v-6.556
	C244.873,142.879,243.207,140.764,239.875,140.764z"/>
<path style="fill:#FFFFFF;" d="M256.344,141.689c-0.821-0.607-1.798-0.925-2.988-0.925c-1.772,0-3.173,0.609-4.203,1.798
	c-1.031,1.19-1.56,2.776-1.56,4.786c0,4.045,2.247,6.609,5.763,6.609c1.718,0,3.04-0.607,3.913-1.85l0.317,1.534h2.221v-18.084
	l-3.463,1.348V141.689z M253.937,151.26c-1.718,0-2.723-1.296-2.723-3.913c0-2.591,0.899-3.887,2.723-3.887
	c1.72,0,2.723,1.374,2.723,3.887C256.661,149.885,255.657,151.26,253.937,151.26z"/>
<path style="fill:#FFFFFF;" d="M282.222,151.128c-1.508,0-3.2-0.45-5.13-1.322l0.16,3.146c1.506,0.661,3.198,1.004,5.102,1.004
	c1.983,0,3.622-0.423,4.864-1.296c1.269-0.872,1.904-2.009,1.904-3.436c0-1.93-1.296-3.384-2.909-4.125
	c-1.612-0.766-3.384-1.296-4.52-2.061c-1.772-1.217-0.635-3.12,1.692-3.12c1.374,0,2.802,0.291,4.256,0.872l1.031-2.511
	c-1.771-0.793-3.569-1.19-5.419-1.19c-1.798,0-3.279,0.423-4.469,1.296c-1.163,0.845-1.744,1.983-1.744,3.436
	c-0.052,3.226,3.014,4.415,5.367,5.234c1.614,0.556,2.909,1.243,2.909,2.221C285.316,150.44,284.231,151.128,282.222,151.128z"/>
<path style="fill:#FFFFFF;" d="M296.655,156.204c-1.481,0-2.961-0.238-4.415-0.715l0.132,2.855c1.56,0.37,3.014,0.555,4.389,0.555
	c4.6,0,6.9-1.877,6.9-5.657v-12.161h-3.464v7.005c-0.026,1.904-0.819,2.855-2.407,2.855c-1.612,0-2.431-1.136-2.431-3.436v-6.424
	h-3.464v6.582c0,3.993,1.983,5.975,5.605,5.975c1.031,0,1.93-0.291,2.697-0.847v0.398
	C300.197,155.279,299.166,156.204,296.655,156.204z"/>
<path style="fill:#FFFFFF;" d="M312.091,151.26c-1.612,0-3.252-0.318-4.97-0.979l0.132,2.909c1.454,0.501,3.067,0.766,4.892,0.766
	c3.569,0,5.711-1.532,5.711-4.071c0.052-2.167-2.591-3.226-4.627-3.833c-1.374-0.45-2.485-0.925-2.485-1.534
	c0-0.715,0.741-1.057,2.195-1.057c1.296,0,2.565,0.211,3.833,0.635l0.688-2.565c-1.428-0.503-2.935-0.767-4.521-0.767
	c-3.887,0-5.817,1.428-5.817,3.939c0,0.925,0.37,1.692,1.111,2.301c0.739,0.609,1.56,1.057,2.431,1.296
	c0.899,0.238,1.72,0.529,2.459,0.845c0.741,0.318,1.111,0.662,1.111,1.031C314.233,150.81,313.282,151.26,312.091,151.26z"/>
<path style="fill:#FFFFFF;" d="M324.49,149.25c0,3.173,2.009,4.706,5.155,4.706c1.031,0,1.984-0.132,2.855-0.369l0.106-2.645
	c-0.793,0.212-1.612,0.318-2.485,0.318c-1.454,0-2.168-0.793-2.168-2.353v-5.288h3.834l0.687-2.537h-4.521l0.45-3.94l-3.384,0.741
	l-0.45,3.2h-2.908l-0.687,2.537h3.516V149.25z"/>
<path style="fill:#FFFFFF;" d="M347.754,147.268c0-3.913-1.798-6.504-5.526-6.504c-1.983,0-3.516,0.609-4.6,1.824
	c-1.085,1.216-1.614,2.776-1.614,4.706c0,4.309,2.38,6.662,7.112,6.662c1.454,0,2.803-0.237,3.993-0.713l0.158-2.749
	c-1.322,0.503-2.643,0.767-3.993,0.767c-2.141,0-3.358-0.979-3.595-2.909h7.217L347.754,147.268z M339.716,146.025
	c0.238-1.718,1.057-2.564,2.485-2.564c1.48,0,2.327,0.978,2.221,2.564H339.716z"/>
<path style="fill:#FFFFFF;" d="M349.892,153.639h3.12v-7.455c-0.026-1.956,0.344-2.935,1.111-2.935c0.661,0,0.925,0.793,0.925,3.2
	v7.191h3.066v-7.561c0-1.772,0.556-2.829,1.111-2.829c0.713,0,0.925,0.741,0.925,3.2v7.191h3.12v-7.667
	c0-3.833-0.847-5.208-3.173-5.208c-0.845,0-1.85,0.687-2.458,1.718c-0.424-1.136-1.323-1.718-2.697-1.718
	c-1.137,0-2.274,0.873-2.671,1.956l-0.449-1.638h-1.93V153.639z"/>
<polygon style="fill:#FFFFFF;" points="382.036,142.588 384.442,151.419 387.456,151.419 389.915,142.562 389.809,153.639 
	392.903,153.639 392.797,137.406 388.804,137.406 385.949,147.532 383.147,137.406 379.18,137.406 379.022,153.639 382.168,153.639 
	"/>
<path style="fill:#FFFFFF;" d="M400.381,145.92c-3.595,0-5.473,1.454-5.473,3.965c0,2.407,1.85,4.071,4.68,4.071
	c1.64,0,2.961-0.581,3.966-1.744h0.105l0.529,1.428h2.222v-8.17c0-3.172-2.407-4.706-5.975-4.706c-1.64,0-3.252,0.264-4.839,0.767
	l0.688,2.511c1.454-0.397,2.776-0.581,3.965-0.581c1.93,0,2.697,0.607,2.697,2.195v0.475
	C402.179,145.998,401.334,145.92,400.381,145.92z M402.946,150.123c-0.767,0.767-1.666,1.137-2.723,1.137
	c-1.19,0-1.798-0.661-1.798-1.64c0-1.084,0.741-1.771,2.115-1.771c0.899,0,1.692,0.079,2.407,0.211V150.123z"/>
<path style="fill:#FFFFFF;" d="M416.242,140.764c-1.612,0-3.226,0.793-4.045,1.824l-0.503-1.506H409.5v12.558h3.464v-6.452
	c0-2.405,0.979-3.727,2.643-3.727c1.481,0,2.168,1.031,2.168,3.781v6.398h3.464v-6.556
	C421.24,142.879,419.574,140.764,416.242,140.764z"/>
<path style="fill:#FFFFFF;" d="M429.776,145.92c-3.595,0-5.473,1.454-5.473,3.965c0,2.407,1.85,4.071,4.68,4.071
	c1.64,0,2.961-0.581,3.966-1.744h0.105l0.529,1.428h2.222v-8.17c0-3.172-2.407-4.706-5.975-4.706c-1.64,0-3.252,0.264-4.839,0.767
	l0.688,2.511c1.454-0.397,2.776-0.581,3.965-0.581c1.93,0,2.697,0.607,2.697,2.195v0.475
	C431.574,145.998,430.728,145.92,429.776,145.92z M432.341,150.123c-0.767,0.767-1.666,1.137-2.723,1.137
	c-1.19,0-1.798-0.661-1.798-1.64c0-1.084,0.741-1.771,2.115-1.771c0.899,0,1.692,0.079,2.407,0.211V150.123z"/>
<path style="fill:#FFFFFF;" d="M444.367,140.764c-1.771,0-3.172,0.582-4.203,1.744c-1.031,1.163-1.56,2.751-1.56,4.733
	c0,3.939,2.195,6.398,5.763,6.398c1.191,0,2.221-0.291,3.094-0.899l0.026,0.45c0,2.089-1.084,3.014-3.648,3.014
	c-1.506,0-2.988-0.238-4.415-0.715l0.132,2.855c1.56,0.37,3.015,0.555,4.389,0.555c4.627,0,6.954-1.877,6.954-5.657l0.026-12.161
	h-2.247l-0.398,1.532C447.302,141.372,445.98,140.764,444.367,140.764z M444.949,150.942c-1.824,0-2.723-1.242-2.723-3.701
	c0-2.511,0.899-3.781,2.723-3.781c1.772,0,2.749,1.348,2.749,3.781C447.699,149.647,446.721,150.942,444.949,150.942z"/>
<path style="fill:#FFFFFF;" d="M465.331,147.268c0-3.913-1.798-6.504-5.526-6.504c-1.983,0-3.516,0.609-4.6,1.824
	c-1.085,1.216-1.614,2.776-1.614,4.706c0,4.309,2.38,6.662,7.112,6.662c1.454,0,2.803-0.237,3.993-0.713l0.158-2.749
	c-1.322,0.503-2.643,0.767-3.993,0.767c-2.141,0-3.358-0.979-3.595-2.909h7.217L465.331,147.268z M457.293,146.025
	c0.238-1.718,1.057-2.564,2.485-2.564c1.48,0,2.327,0.978,2.221,2.564H457.293z"/>
<path style="fill:#FFFFFF;" d="M480.847,153.639v-7.667c0-3.833-0.847-5.208-3.173-5.208c-0.845,0-1.85,0.687-2.458,1.718
	c-0.424-1.136-1.323-1.718-2.697-1.718c-1.137,0-2.274,0.873-2.671,1.956l-0.449-1.638h-1.93v12.558h3.12v-7.455
	c-0.026-1.956,0.344-2.935,1.111-2.935c0.661,0,0.925,0.793,0.925,3.2v7.191h3.066v-7.561c0-1.772,0.556-2.829,1.111-2.829
	c0.713,0,0.925,0.741,0.925,3.2v7.191H480.847z"/>
<path style="fill:#FFFFFF;" d="M494.725,147.268c0-3.913-1.798-6.504-5.526-6.504c-1.983,0-3.516,0.609-4.6,1.824
	c-1.085,1.216-1.614,2.776-1.614,4.706c0,4.309,2.38,6.662,7.112,6.662c1.454,0,2.803-0.237,3.993-0.713l0.158-2.749
	c-1.322,0.503-2.643,0.767-3.993,0.767c-2.141,0-3.358-0.979-3.595-2.909h7.217L494.725,147.268z M486.688,146.025
	c0.238-1.718,1.057-2.564,2.485-2.564c1.48,0,2.327,0.978,2.221,2.564H486.688z"/>
<path style="fill:#FFFFFF;" d="M504.425,140.764c-1.612,0-3.226,0.793-4.045,1.824l-0.503-1.506h-2.195v12.558h3.464v-6.452
	c0-2.405,0.979-3.727,2.643-3.727c1.481,0,2.168,1.031,2.168,3.781v6.398h3.464v-6.556
	C509.422,142.879,507.757,140.764,504.425,140.764z"/>
<path style="fill:#FFFFFF;" d="M519.016,148.908v-5.288h3.834l0.687-2.537h-4.521l0.45-3.94l-3.384,0.741l-0.45,3.2h-2.908
	l-0.687,2.537h3.516v5.631c0,3.173,2.009,4.706,5.155,4.706c1.031,0,1.984-0.132,2.855-0.369l0.106-2.645
	c-0.793,0.212-1.612,0.318-2.485,0.318C519.73,151.26,519.016,150.467,519.016,148.908z"/>
</svg>
