<?xml version="1.0" encoding="UTF-8" standalone="no"?>
<!-- Created with Inkscape (http://www.inkscape.org/) -->

<svg
   width="42.333332mm"
   height="25.4mm"
   viewBox="0 0 42.333332 25.4"
   version="1.1"
   id="svg1"
   xml:space="preserve"
   inkscape:export-filename="bitmap.png"
   inkscape:export-xdpi="300"
   inkscape:export-ydpi="300"
   inkscape:version="1.4 (86a8ad7, 2024-10-11)"
   sodipodi:docname="spoonbill-feature.svg"
   xmlns:inkscape="http://www.inkscape.org/namespaces/inkscape"
   xmlns:sodipodi="http://sodipodi.sourceforge.net/DTD/sodipodi-0.dtd"
   xmlns="http://www.w3.org/2000/svg"
   xmlns:svg="http://www.w3.org/2000/svg"><sodipodi:namedview
     id="namedview1"
     pagecolor="#ffffff"
     bordercolor="#000000"
     borderopacity="0.25"
     inkscape:showpageshadow="2"
     inkscape:pageopacity="0.0"
     inkscape:pagecheckerboard="0"
     inkscape:deskcolor="#d1d1d1"
     inkscape:document-units="mm"
     inkscape:zoom="1.4378367"
     inkscape:cx="116.14671"
     inkscape:cy="83.806457"
     inkscape:window-width="1920"
     inkscape:window-height="1094"
     inkscape:window-x="2869"
     inkscape:window-y="-11"
     inkscape:window-maximized="1"
     inkscape:current-layer="layer1"><inkscape:page
       x="0"
       y="0"
       width="42.333332"
       height="25.4"
       id="page2"
       margin="0"
       bleed="0" /></sodipodi:namedview><defs
     id="defs1" /><g
     inkscape:label="Layer 1"
     inkscape:groupmode="layer"
     id="layer1"
     transform="translate(-82.491013,-83.167383)"><g
       id="g3"
       inkscape:label="spoonbill"
       transform="matrix(0.88974199,0,0,0.88974199,-3.635085,-158.60711)"><path
         id="path76-9-3-1"
         style="fill:none;fill-opacity:1;fill-rule:evenodd;stroke:#000000;stroke-width:0.129904;stroke-dasharray:none;stroke-opacity:1"
         d="m 117.3812,297.74336 c -0.25449,0.0748 -0.39406,0.16846 -0.3951,0.26522 -4e-5,0.23168 0.77801,0.4195 1.73782,0.4195 0.4724,10e-6 0.90021,-0.0457 1.21347,-0.11949 m 0.44916,-0.17771 c 0.0488,-0.0387 0.0753,-0.0797 0.0753,-0.1223 5e-5,-0.23168 -0.77808,-0.41951 -1.73793,-0.4195 -0.26446,2.1e-4 -0.52524,0.015 -0.76247,0.0432 m -1.55205,-0.19236 c -0.63362,0.14974 -0.99169,0.35461 -0.99388,0.56865 -8e-5,0.44106 1.48119,0.79861 3.3084,0.7986 0.55499,1e-5 1.07719,-0.0334 1.53655,-0.0917 m 1.41681,-0.34712 c 0.22657,-0.10815 0.35506,-0.23033 0.35504,-0.35981 7e-5,-0.44106 -1.48119,-0.79861 -3.3084,-0.79861 -0.33889,5e-4 -0.67543,0.0135 -0.9979,0.0387 m -2.12644,-0.0615 c -0.95418,0.21108 -1.49822,0.50902 -1.49992,0.82143 2e-5,0.61646 2.07036,1.11619 4.62426,1.11619 0.63563,0 1.2411,-0.031 1.79237,-0.087 m 2.2176,-0.47479 c 0.38873,-0.16345 0.61429,-0.35239 0.61431,-0.55438 -2e-5,-0.61645 -2.07039,-1.11619 -4.62428,-1.11618 -0.40287,3.3e-4 -0.80385,0.0134 -1.19271,0.0388" /><path
         style="fill:#000000;fill-opacity:1;fill-rule:evenodd;stroke:#000000;stroke-width:0.129904;stroke-dasharray:none;stroke-opacity:1"
         d="m 118.96603,298.03732 c -0.0902,-0.72395 -0.24677,-1.50209 -0.13382,-2.23922 -0.0255,-1.30845 -0.46903,-2.65074 -0.0463,-3.94638 0.34425,-1.14584 0.76018,-2.27238 1.28827,-3.34793 0.20645,-0.46516 0.47843,-0.90367 0.66714,-1.37378 0.0492,-0.23294 0.006,-0.5317 -0.22806,-0.65032 -0.83543,1.78471 -1.85352,3.50592 -2.35757,5.42585 0.14303,2.01524 0.28895,4.09241 0.35912,6.11145 0.25098,0.0359 0.19868,0.0304 0.45117,0.0203 z"
         id="path75-8-7-4"
         sodipodi:nodetypes="ccccccccc" /><path
         style="fill:#000000;fill-opacity:1;fill-rule:evenodd;stroke:#000000;stroke-width:0.129904;stroke-dasharray:none;stroke-opacity:1"
         d="m 117.72613,287.33002 c -0.86065,1.52554 -3.42694,4.03386 -0.11457,4.19344 0.71459,0.0794 1.42611,0.17291 2.14618,0.18952 0.65302,0.0467 1.43993,0.25895 1.68044,0.94762 0.33499,0.7444 0.93208,1.34337 1.53391,1.88076 0.44061,0.34893 0.93739,-0.29196 0.45814,-0.62346 -0.34479,-0.85033 -0.58103,-1.88422 -1.44118,-2.37336 -0.67128,-0.28616 -1.43722,-0.20635 -2.14914,-0.31547 -0.87995,-0.0749 -1.76655,-0.18448 -2.62236,-0.38516 -1.24241,-0.33508 -0.28104,-1.08084 0.0302,-1.47882 0.43286,-0.48634 0.58948,-1.12703 0.9812,-1.63487 0.36463,-0.54045 -0.0683,-0.62509 -0.50282,-0.4002 z"
         id="path74-4-2-6"
         sodipodi:nodetypes="cccccccccccc" /><path
         style="fill:#ffffff;fill-opacity:1;fill-rule:evenodd;stroke:#000000;stroke-width:0.129904;stroke-dasharray:none;stroke-opacity:1"
         d="m 124.84118,273.10425 c -0.33008,0.21248 -0.72406,-0.17987 -1.66318,0.77522 -0.44507,0.74872 -1.06384,1.45637 -1.15062,2.35817 -0.0484,0.3932 -0.19334,1.82873 -0.19334,1.82873 0,0 0.71029,-2.19871 0.7837,-2.09902 -0.31676,0.44212 -0.44619,2.96491 -0.28199,2.98959 0.0163,-0.0427 0.59503,-2.43044 0.7649,-2.33277 -0.11632,0.39901 -0.4336,1.91314 -0.0475,2.20383 -0.0562,-0.44579 0.36524,-1.65089 1.00451,-2.16805 0.26135,-0.85268 0.2523,-1.75434 0.24918,-2.63709 0.29151,-0.3889 0.34116,-0.46795 0.53433,-0.91861 z"
         id="path73-0-6-0"
         sodipodi:nodetypes="ccccccccccc" /><path
         style="fill:#ffffff;fill-opacity:1;fill-rule:evenodd;stroke:#000000;stroke-width:0.129904;stroke-dasharray:none;stroke-opacity:1"
         d="m 117.15826,287.0671 c 0.0904,0.6134 -0.0191,1.61226 0.88234,1.03826 0.76003,-0.38527 1.4168,-0.69191 1.3776,0.50752 1.28961,0.95495 1.60989,-1.5748 3.01649,-1.50979 2.17892,-1.19043 4.1336,-4.76879 4.18799,-5.14305 0.0791,-0.9419 0.0924,-1.83664 -0.0968,-2.76786 -0.47339,-1.42945 -1.14018,-2.85109 -1.10659,-4.38089 0.50417,-0.80344 1.22601,-1.47014 -0.0616,-1.85649 -1.40509,-0.44276 -2.29094,1.61544 -2.12391,2.79378 0.47122,1.17212 0.91408,2.38952 0.78528,3.67636 -0.38964,1.01797 -1.65864,1.09559 -2.54059,1.50147 -1.45252,0.40585 -3.03771,0.55543 -4.27147,1.50023 -1.15326,0.62269 -1.89301,1.77994 -3.08355,2.3531 -1.213,0.70164 -1.93923,1.77599 -2.76535,2.88863 -0.0902,0.30374 -0.38239,0.69996 -0.38239,0.69996 0,0 0.33038,1.43446 0.90874,0.798 0.80309,-1.03504 2.50132,-1.5399 3.7072,-1.68636 0.54447,-0.0438 1.04644,-0.26383 1.56658,-0.41287 z"
         id="path70-7-0-7"
         sodipodi:nodetypes="ccccccccccccccccccc" /><path
         style="fill:#ffffff;fill-opacity:1;fill-rule:evenodd;stroke:#000000;stroke-width:0.129904;stroke-dasharray:none;stroke-opacity:1"
         d="m 121.85931,280.87252 c 0.73259,0.12611 1.41218,0.84733 1.15022,1.62057 -0.22478,0.96876 -0.99034,1.6972 -1.77764,2.23773 -0.48827,0.64401 -1.04702,1.27 -1.82581,1.56372 -1.50342,0.67504 -3.19253,0.45049 -4.76619,0.78913 -0.9757,0.2657 -2.69655,1.29523 -2.94481,1.03854 -0.24826,-0.25669 0.2257,-2.13341 0.76202,-2.44791 1.86793,-1.78633 3.5064,-2.75456 5.83487,-3.86951 1.1459,-0.46043 2.38037,-0.61558 3.56734,-0.93227 z"
         id="path71-6-1-1"
         sodipodi:nodetypes="ccccczccc" /><path
         style="fill:#000000;fill-opacity:1;fill-rule:evenodd;stroke:#000000;stroke-width:0.129904;stroke-dasharray:none;stroke-opacity:1"
         d="m 124.8476,273.713 c 0.46201,0.0466 0.92497,-0.0665 1.37411,-0.0695 0.40931,0.43782 0.29032,1.18301 0.69127,1.66495 0.75621,1.23876 1.61422,2.45165 2.78107,3.33859 0.5006,0.28637 0.82864,1.25696 0.0375,1.37194 -0.58838,-0.0918 -1.27817,-0.45523 -1.48774,-1.03938 -0.18739,-0.69877 -0.39101,-1.44259 -0.95718,-1.93772 -0.57049,-0.66529 -1.26442,-1.21152 -1.83678,-1.87626 -0.49975,0.11033 -0.82682,-0.36623 -0.60988,-0.79867 -0.0642,-0.22768 -0.15476,-0.44144 0.008,-0.65397 z"
         id="path72-3-6-7" /></g></g></svg>
