<?xml version="1.0" encoding="UTF-8" standalone="no"?>
<!-- Created with Inkscape (http://www.inkscape.org/) -->

<svg
   width="42.333332mm"
   height="25.4mm"
   viewBox="0 0 42.333332 25.4"
   version="1.1"
   id="svg1"
   xml:space="preserve"
   inkscape:export-filename="bitmap.png"
   inkscape:export-xdpi="300"
   inkscape:export-ydpi="300"
   inkscape:version="1.4 (86a8ad7, 2024-10-11)"
   sodipodi:docname="woodpigeon-feature.svg"
   xmlns:inkscape="http://www.inkscape.org/namespaces/inkscape"
   xmlns:sodipodi="http://sodipodi.sourceforge.net/DTD/sodipodi-0.dtd"
   xmlns="http://www.w3.org/2000/svg"
   xmlns:svg="http://www.w3.org/2000/svg"><sodipodi:namedview
     id="namedview1"
     pagecolor="#ffffff"
     bordercolor="#000000"
     borderopacity="0.25"
     inkscape:showpageshadow="2"
     inkscape:pageopacity="0.0"
     inkscape:pagecheckerboard="0"
     inkscape:deskcolor="#d1d1d1"
     inkscape:document-units="mm"
     inkscape:zoom="1.4378367"
     inkscape:cx="54.248163"
     inkscape:cy="-18.430466"
     inkscape:window-width="1920"
     inkscape:window-height="1094"
     inkscape:window-x="2869"
     inkscape:window-y="-11"
     inkscape:window-maximized="1"
     inkscape:current-layer="layer1"><inkscape:page
       x="2.0989028e-06"
       y="2.737627e-06"
       width="42.333332"
       height="25.400002"
       id="page2"
       margin="0"
       bleed="0" /></sodipodi:namedview><defs
     id="defs1" /><g
     inkscape:label="Layer 1"
     inkscape:groupmode="layer"
     id="layer1"
     transform="translate(-128.83069,-101.17297)"><g
       id="g113"
       transform="matrix(0.27460712,0,0,0.27460712,122.49159,101.73075)"
       style="stroke-width:0.422422;stroke-dasharray:none"><path
         style="fill:#f6a671;fill-opacity:1;fill-rule:evenodd;stroke:#000000;stroke-width:0.422422;stroke-dasharray:none;stroke-opacity:1"
         d="m 139.35318,5.2572767 c 0,0 4.14577,2.7886 5.06041,4.9684003 0.27293,0.65045 0,2.11618 0,2.11618 l -1.28811,-0.64406 -2.4842,-1.38011 -5.24442,-1.8401503 z"
         id="path113"
         sodipodi:nodetypes="caccccc" /><path
         style="fill:#f6a671;fill-opacity:1;fill-rule:evenodd;stroke:#000000;stroke-width:0.422422;stroke-dasharray:none;stroke-opacity:1"
         d="m 106.50653,62.761927 c 0.0178,1.00587 0.93567,1.95175 1.84015,2.3922 1.57176,0.76539 3.98147,1.16279 5.24442,-0.046 0.42155,-0.40348 0.49068,-1.32205 0.092,-1.74815 -0.75441,-0.8063 -2.253,0.26577 -3.31227,-0.046 -1.11024,-0.32677 -1.80906,-2.06551 -2.94424,-1.84015 -0.51755,0.10275 -0.92942,0.76053 -0.92007,1.2881 z"
         id="path95"
         sodipodi:nodetypes="aaaaaaa" /><path
         style="fill:#b6b6b6;fill-opacity:1;fill-rule:evenodd;stroke:#000000;stroke-width:0.422422;stroke-dasharray:none;stroke-opacity:1"
         d="m 55.790477,86.429347 c -0.01463,-0.59814 5.611768,-6.49284 8.357779,-9.78975 0.71531,-0.85881 2.11442,-2.60236 2.11442,-2.60236 0,0 -2.217604,0.87027 -3.025246,0.26023 -0.273203,-0.20635 -0.291768,-0.67995 -0.195177,-1.00842 0.292085,-0.99328 0.893501,-0.89058 2.14695,-2.24453 -1.014637,0.18728 -1.180012,0.40986 -1.659007,0.13011 -0.444042,-0.25932 -0.728149,-0.89042 -0.650591,-1.39876 0.31837,-2.08672 2.723065,-3.2388 4.261369,-4.68426 1.023062,-0.96132 2.327625,-1.60859 3.285484,-2.63489 0.648534,-0.69488 1.019477,-1.6107 1.626478,-2.34213 0.700208,-0.84375 1.567432,-1.53504 2.309597,-2.34213 0.541336,-0.58869 1.561417,-1.82165 1.561417,-1.82165 0,0 -0.575716,-1.60697 -0.422882,-2.40719 0.415513,-2.17558 2.260895,-3.81137 3.480659,-5.66014 0.672654,-1.01953 1.322583,-2.06272 2.114419,-2.99272 1.466397,-1.72226 3.2864,-3.11184 4.846901,-4.74931 1.361731,-1.4289 2.596868,-2.97399 3.936075,-4.42402 1.477719,-1.6 2.921072,-3.23964 4.521607,-4.71678 2.098317,-1.93655 4.299159,-3.77648 6.638461,-5.4138 1.60562,-1.1238 2.87544,-1.16717 5.05132,-3.00876 0.56607,-0.4791 1.0071,-1.09588 1.58227,-1.56401 1.80766,-1.47124 3.81715,-2.68375 5.82279,-3.87101 1.56928,-0.92896 3.44826,-1.36709 4.8469,-2.53731 1.03134,-0.86291 1.67064,-2.10821 2.47224,-3.1879 1.45094,-1.9542803 2.61275,-4.1328103 4.22884,-5.9529003 1.24365,-1.40063 2.477,-2.95906 4.16378,-3.77342 1.85031,-0.89330005 4.05638,-1.34663005 6.08196,-1.00217005 2.00236,0.34052005 4.07971,1.33495005 5.34679,2.92237005 0.56425,0.7069 0.86885,1.71481 0.74125,2.61025 -0.24954,1.75112 -1.55102,3.26196 -2.81775,4.4965003 -1.00772,0.9821 -2.69999,1.09596 -3.63359,2.14877 -1.22942,1.38642 -1.75652,3.29942 -2.23704,5.08904 -0.50386,1.87656 -0.44449,3.86065 -0.6427,5.79353 -0.20209,1.97076 -0.3528,3.94659 -0.55723,5.91711 -0.2501,2.41075 -0.22738,4.8744 -0.81882,7.22482 -0.64621,2.56812 -1.68243,5.05113 -2.94806,7.37728 -1.12243,2.06294 -2.38607,4.11505 -4.07313,5.74887 -1.84096,1.78287 -4.24449,2.87487 -6.41255,4.24136 -1.71162,1.07881 -3.35399,2.30536 -5.20472,3.12284 -1.24265,0.54889 -3.34899,-0.0691 -3.90354,1.17106 -0.62574,1.39931 2.61547,2.78208 1.95177,4.16378 -0.56026,1.16635 -2.50058,1.14348 -3.77343,0.91083 -1.13607,-0.20765 -1.75531,-1.62363 -2.8626,-1.95177 -1.87179,-0.5547 -3.932361,-0.20684 -5.855315,0.13012 -1.654197,0.28987 -3.241721,0.92204 -4.774907,1.60741 -4.031007,1.80196 -7.7777,4.19509 -11.521436,6.53614 -2.041104,1.27635 -3.978819,2.71119 -5.953863,4.08755 -1.787034,1.24534 -3.713835,2.31854 -5.334844,3.77343 -2.584093,2.31927 -5.035714,6.11843 -6.896264,7.80709 -1.86055,1.68866 -4.602836,2.10871 -5.015526,2.22644 -0.41269,0.11773 -2.286683,-0.81669 -2.301308,-1.41484 z"
         id="path4"
         sodipodi:nodetypes="zacaacaaaaaacaaaaaaasaaaaaaaaaaaaaaaaaaaaaaaaaaaazzz" /><path
         id="path93"
         style="fill:#555554;fill-opacity:1;fill-rule:evenodd;stroke:#000000;stroke-width:0.422422;stroke-dasharray:none;stroke-opacity:1"
         d="m 86.763457,66.290307 4.449341,-4.09381 c 0,0 1.821534,-1.56127 3.643188,-2.34198 1.821654,-0.7807 2.34234,-2.34242 4.684469,-4.16408 2.342125,-1.82165 6.505765,-6.50562 11.190015,-9.10798 4.68425,-2.60236 2.7681,-4.8682 3.02833,-6.42962 0.26024,-1.56142 2.69678,-5.54141 1.91607,-8.92448 -0.78071,-3.38307 -3.64291,-5.98523 -5.20433,-8.58759 -0.56558,-0.94263 -1.31782,-1.70812 -2.10117,-2.45773 -0.23496,0.17849 -0.47544,0.3501 -0.70435,0.5364 -0.57517,0.46813 -1.01626,1.08463 -1.58233,1.56373 -2.17587,1.84159 -3.44575,1.88532 -5.05137,3.00912 -2.339305,1.63732 -4.540038,3.47707 -6.638355,5.41362 -1.600535,1.47714 -3.043969,3.11651 -4.521688,4.71651 -1.339207,1.45003 -2.573946,2.99512 -3.935677,4.42402 -1.560501,1.63747 -3.380852,3.02732 -4.847249,4.74958 -0.791836,0.93 -1.441429,1.97305 -2.114083,2.99258 -1.219764,1.84877 -3.065411,3.48454 -3.480924,5.66012 -0.152834,0.80022 0.422713,2.40709 0.422713,2.40709 0,0 -1.019809,1.23291 -1.561145,1.8216 -0.742162,0.80709 -1.609732,1.49874 -2.309942,2.34249 -0.607,0.73143 -0.97772,1.6471 -1.62625,2.34198 -0.95786,1.0263 -2.26253,1.67366 -3.28559,2.63498 -1.5383,1.44546 -3.94287,2.59723 -4.26124,4.68395 -0.0776,0.50834 0.20657,1.13956 0.65061,1.39888 0.47899,0.27975 0.64417,0.0571 1.65881,-0.13022 -1.25345,1.35395 -1.85455,1.25154 -2.14664,2.24482 -0.0966,0.32847 -0.0784,0.80186 0.19482,1.00821 0.80764,0.61004 3.02566,-0.25994 3.02566,-0.25994 0,0 -0.30421,0.37314 -0.38396,0.47233 3.02129,-0.53972 5.82394,-1.34876 5.82394,-1.34876 l 10.501681,-3.78065 c 1.511847,-0.94651 3.027909,-1.89097 4.566646,-2.79517 z"
         sodipodi:nodetypes="ccsssssscssssssssscsssssscscccccc" /><path
         id="path4-2"
         style="fill:#767676;fill-opacity:1;fill-rule:evenodd;stroke:#000000;stroke-width:0.422422;stroke-dasharray:none;stroke-opacity:1"
         d="m 75.387976,54.129137 c 4.081235,2.11825 8.430838,3.64569 13.061218,4.23747 20.494316,3.53608 35.578096,-22.70222 23.986136,-39.27512 l -1.49345,-0.58136 c -1.16799,0.73756 -2.31446,1.50629 -3.38378,2.3766 -0.57517,0.46813 -1.01626,1.08514 -1.58233,1.56424 -2.17587,1.84159 -3.44575,1.8848 -5.05137,3.0086 -2.339303,1.63732 -4.540036,3.47759 -6.638353,5.41414 -1.600535,1.47714 -3.043968,3.11651 -4.521687,4.71651 -1.339207,1.45003 -2.574463,2.99512 -3.936194,4.42402 -1.560501,1.63747 -3.380336,3.02732 -4.846733,4.74958 -0.791836,0.93 -1.441429,1.97305 -2.114083,2.99258 -1.219764,1.84877 -3.065411,3.48454 -3.480924,5.66012 -0.03815,0.19977 -0.03081,0.44986 0.0016,0.71262 z" /><path
         style="fill:#ffffff;fill-opacity:0.65625;fill-rule:evenodd;stroke:#000000;stroke-width:0.422422;stroke-dasharray:none;stroke-opacity:1"
         d="m 120.49166,15.286077 c 1.55145,-0.56633 3.41677,0.36218 4.78439,1.28811 1.01584,0.68776 1.8852,1.76075 2.20818,2.94424 0.29248,1.07169 0.35502,2.46891 -0.36803,3.31227 -1.53019,1.78479 -4.62022,2.69929 -6.80855,1.84014 -1.07728,-0.42295 -1.30912,-1.91593 -1.84015,-2.94423 -0.36589,-0.7085 -1.00484,-1.4153 -0.92007,-2.20818 0.18269,-1.70883 1.32985,-3.64306 2.94423,-4.23235 z"
         id="path94"
         sodipodi:nodetypes="aaaaaaaa" /><ellipse
         style="fill:#e6e6e6;fill-opacity:1;fill-rule:evenodd;stroke:#000000;stroke-width:0.422422;stroke-dasharray:none;stroke-opacity:1"
         id="path96"
         cx="134.52341"
         cy="-42.646732"
         rx="1.3492928"
         ry="0.58841985"
         transform="rotate(20.473686)" /></g></g></svg>
